<?xml version="1.0" encoding="UTF-8"?>
<svg xmlns="http://www.w3.org/2000/svg" xmlns:xlink="http://www.w3.org/1999/xlink" width="74.506pt" height="85.031pt" viewBox="0 0 74.506 85.031">
<path fill-rule="nonzero" fill="rgb(93.998718%, 96.998596%, 96.998596%)" fill-opacity="1" stroke-width="0.49814" stroke-linecap="butt" stroke-linejoin="round" stroke="rgb(50%, 75%, 75%)" stroke-opacity="1" stroke-miterlimit="10" d="M 0.00188237 -0.0018802 L 7.559696 -0.0018802 L 11.336627 6.544537 L 15.117509 -0.0018802 L 22.675323 -0.0018802 L 26.456205 6.544537 L 22.675323 13.090955 L 30.237087 13.090955 L 34.014018 19.637373 L 37.794901 13.090955 L 45.352714 13.090955 L 41.575783 6.544537 L 45.352714 -0.0018802 L 52.914478 -0.0018802 L 56.69141 6.544537 L 60.472292 -0.0018802 L 68.030105 -0.0018802 L 64.253174 -6.544347 L 68.030105 -13.090765 L 60.472292 -13.090765 L 56.69141 -19.637182 L 60.472292 -26.1836 L 68.030105 -26.1836 L 64.253174 -32.730018 L 68.030105 -39.276435 L 60.472292 -39.276435 L 56.69141 -45.822853 L 52.914478 -39.276435 L 45.352714 -39.276435 L 41.575783 -45.822853 L 45.352714 -52.36927 L 37.794901 -52.36927 L 34.014018 -58.915688 L 30.237087 -52.36927 L 22.675323 -52.36927 L 26.456205 -45.822853 L 22.675323 -39.276435 L 15.117509 -39.276435 L 11.336627 -45.822853 L 7.559696 -39.276435 L 0.00188237 -39.276435 L 3.778814 -32.730018 L 0.00188237 -26.1836 L 7.559696 -26.1836 L 11.336627 -19.637182 L 7.559696 -13.090765 L 0.00188237 -13.090765 L 3.778814 -6.544347 L 0.00188237 -0.0018802 " transform="matrix(0.988733, 0, 0, -0.988733, 3.377045, 22.619235)"/>
</svg>
