<?xml version="1.0" encoding="UTF-8"?>
<svg xmlns="http://www.w3.org/2000/svg" xmlns:xlink="http://www.w3.org/1999/xlink" width="61.935pt" height="53.998pt" viewBox="0 0 61.935 53.998">
<path fill-rule="nonzero" fill="rgb(64.99939%, 82.499695%, 82.499695%)" fill-opacity="1" d="M 3.183594 11.140625 L 3.183594 3.210938 L 11.113281 3.210938 L 11.113281 11.140625 Z M 3.183594 11.140625 "/>
<path fill-rule="nonzero" fill="rgb(64.99939%, 82.499695%, 82.499695%)" fill-opacity="1" d="M 11.113281 11.140625 L 11.113281 3.210938 L 19.042969 3.210938 L 19.042969 11.140625 Z M 11.113281 11.140625 "/>
<path fill-rule="nonzero" fill="rgb(64.99939%, 82.499695%, 82.499695%)" fill-opacity="1" d="M 19.042969 11.140625 L 19.042969 3.210938 L 26.972656 3.210938 L 26.972656 11.140625 Z M 19.042969 11.140625 "/>
<path fill-rule="nonzero" fill="rgb(64.99939%, 82.499695%, 82.499695%)" fill-opacity="1" d="M 26.972656 11.140625 L 26.972656 3.210938 L 34.898438 3.210938 L 34.898438 11.140625 Z M 26.972656 11.140625 "/>
<path fill-rule="nonzero" fill="rgb(100%, 100%, 100%)" fill-opacity="1" d="M 16.109375 7.175781 C 16.109375 6.605469 15.648438 6.144531 15.078125 6.144531 C 14.507812 6.144531 14.046875 6.605469 14.046875 7.175781 C 14.046875 7.746094 14.507812 8.207031 15.078125 8.207031 C 15.648438 8.207031 16.109375 7.746094 16.109375 7.175781 Z M 16.109375 7.175781 "/>
<path fill="none" stroke-width="0.3985" stroke-linecap="butt" stroke-linejoin="miter" stroke="rgb(0%, 0%, 0%)" stroke-opacity="1" stroke-miterlimit="10" d="M -0.00106511 -0.00111952 L 55.561092 -0.00111952 M -0.00106511 7.93689 L 55.561092 7.93689 M -0.00106511 15.8749 L 55.561092 15.8749 M -0.00106511 23.812909 L 55.561092 23.812909 M -0.00106511 31.747009 L 55.561092 31.747009 M -0.00106511 39.685018 L 55.561092 39.685018 M -0.00106511 47.619117 L 55.561092 47.619117 M -0.00106511 -0.00111952 L -0.00106511 47.623028 M 7.936944 -0.00111952 L 7.936944 47.623028 M 15.874954 -0.00111952 L 15.874954 47.623028 M 23.812964 -0.00111952 L 23.812964 47.623028 M 31.747063 -0.00111952 L 31.747063 47.623028 M 39.685073 -0.00111952 L 39.685073 47.623028 M 47.623082 -0.00111952 L 47.623082 47.623028 M 55.557181 -0.00111952 L 55.557181 47.623028 " transform="matrix(0.998952, 0, 0, -0.998952, 3.184658, 50.784038)"/>
</svg>
