<?xml version="1.0" encoding="UTF-8"?>
<svg xmlns="http://www.w3.org/2000/svg" xmlns:xlink="http://www.w3.org/1999/xlink" width="340.833pt" height="30.595pt" viewBox="0 0 340.833 30.595">
<defs>
<g>
<g id="glyph-0-0">
<path d="M 3.921875 -2.5 C 3.921875 -3.34375 3.828125 -3.859375 3.5625 -4.359375 C 3.21875 -5.046875 2.5625 -5.21875 2.125 -5.21875 C 1.109375 -5.21875 0.75 -4.484375 0.640625 -4.265625 C 0.34375 -3.6875 0.328125 -2.921875 0.328125 -2.5 C 0.328125 -1.984375 0.359375 -1.1875 0.734375 -0.5625 C 1.109375 0.015625 1.703125 0.171875 2.125 0.171875 C 2.515625 0.171875 3.203125 0.046875 3.59375 -0.734375 C 3.890625 -1.296875 3.921875 -2 3.921875 -2.5 Z M 3.203125 -2.59375 C 3.203125 -2.140625 3.203125 -1.4375 3.109375 -0.984375 C 2.9375 -0.171875 2.390625 -0.0625 2.125 -0.0625 C 1.859375 -0.0625 1.296875 -0.1875 1.125 -1 C 1.046875 -1.453125 1.046875 -2.1875 1.046875 -2.59375 C 1.046875 -3.140625 1.046875 -3.6875 1.125 -4.125 C 1.296875 -4.921875 1.921875 -5 2.125 -5 C 2.390625 -5 2.953125 -4.875 3.109375 -4.15625 C 3.203125 -3.71875 3.203125 -3.140625 3.203125 -2.59375 Z M 3.203125 -2.59375 "/>
</g>
<g id="glyph-0-1">
<path d="M 1.625 -0.4375 C 1.625 -0.703125 1.40625 -0.875 1.1875 -0.875 C 0.90625 -0.875 0.734375 -0.65625 0.734375 -0.4375 C 0.734375 -0.171875 0.953125 0 1.171875 0 C 1.453125 0 1.625 -0.21875 1.625 -0.4375 Z M 1.625 -0.4375 "/>
</g>
<g id="glyph-0-2">
<path d="M 4.4375 -1.703125 C 4.4375 -2.6875 3.625 -3.46875 2.65625 -3.46875 C 2.34375 -3.46875 1.890625 -3.390625 1.46875 -2.984375 L 1.46875 -3.46875 L 0.28125 -3.375 L 0.28125 -3.125 C 0.84375 -3.125 0.890625 -3.078125 0.890625 -2.75 L 0.890625 0.90625 C 0.890625 1.265625 0.796875 1.265625 0.28125 1.265625 L 0.28125 1.53125 C 0.625 1.5 0.984375 1.5 1.1875 1.5 C 1.421875 1.5 1.765625 1.5 2.109375 1.53125 L 2.109375 1.265625 C 1.59375 1.265625 1.5 1.265625 1.5 0.90625 L 1.5 -0.390625 C 1.875 0.015625 2.28125 0.078125 2.546875 0.078125 C 3.5625 0.078125 4.4375 -0.6875 4.4375 -1.703125 Z M 3.734375 -1.703125 C 3.734375 -0.796875 3.15625 -0.140625 2.5 -0.140625 C 2.21875 -0.140625 1.859375 -0.265625 1.59375 -0.65625 C 1.5 -0.78125 1.5 -0.796875 1.5 -0.9375 L 1.5 -2.625 C 1.6875 -2.9375 2.078125 -3.21875 2.59375 -3.21875 C 3.203125 -3.21875 3.734375 -2.546875 3.734375 -1.703125 Z M 3.734375 -1.703125 "/>
</g>
<g id="glyph-0-3">
<path d="M 4.5 0 L 4.5 -0.265625 C 3.984375 -0.265625 3.890625 -0.265625 3.890625 -0.609375 L 3.890625 -2.375 C 3.890625 -3.046875 3.59375 -3.46875 2.75 -3.46875 C 2.046875 -3.46875 1.671875 -3.03125 1.53125 -2.78125 L 1.515625 -2.78125 L 1.515625 -5.453125 L 0.328125 -5.375 L 0.328125 -5.109375 C 0.875 -5.109375 0.9375 -5.046875 0.9375 -4.671875 L 0.9375 -0.609375 C 0.9375 -0.265625 0.84375 -0.265625 0.328125 -0.265625 L 0.328125 0 C 0.671875 -0.03125 1.03125 -0.03125 1.25 -0.03125 C 1.46875 -0.03125 1.8125 -0.03125 2.15625 0 L 2.15625 -0.265625 C 1.640625 -0.265625 1.546875 -0.265625 1.546875 -0.609375 L 1.546875 -2.03125 C 1.546875 -2.859375 2.1875 -3.25 2.671875 -3.25 C 3.171875 -3.25 3.28125 -2.90625 3.28125 -2.40625 L 3.28125 -0.609375 C 3.28125 -0.265625 3.1875 -0.265625 2.671875 -0.265625 L 2.671875 0 C 3.015625 -0.03125 3.375 -0.03125 3.59375 -0.03125 C 3.828125 -0.03125 4.15625 -0.03125 4.5 0 Z M 4.5 0 "/>
</g>
<g id="glyph-0-4">
<path d="M 4.015625 -1.671875 C 4.015625 -2.65625 3.1875 -3.5 2.125 -3.5 C 1.0625 -3.5 0.234375 -2.65625 0.234375 -1.671875 C 0.234375 -0.6875 1.09375 0.078125 2.125 0.078125 C 3.15625 0.078125 4.015625 -0.6875 4.015625 -1.671875 Z M 3.296875 -1.75 C 3.296875 -1.390625 3.28125 -0.953125 3.046875 -0.625 C 2.84375 -0.3125 2.484375 -0.171875 2.125 -0.171875 C 1.6875 -0.171875 1.359375 -0.375 1.171875 -0.640625 C 0.984375 -0.96875 0.953125 -1.359375 0.953125 -1.75 C 0.953125 -2.046875 0.953125 -2.515625 1.203125 -2.859375 C 1.40625 -3.125 1.75 -3.28125 2.125 -3.28125 C 2.546875 -3.28125 2.890625 -3.09375 3.0625 -2.8125 C 3.28125 -2.484375 3.296875 -2.0625 3.296875 -1.75 Z M 3.296875 -1.75 "/>
</g>
<g id="glyph-0-5">
<path d="M 2.828125 -0.984375 L 2.828125 -1.421875 L 2.578125 -1.421875 L 2.578125 -1 C 2.578125 -0.453125 2.328125 -0.171875 2.03125 -0.171875 C 1.484375 -0.171875 1.484375 -0.84375 1.484375 -0.96875 L 1.484375 -3.125 L 2.6875 -3.125 L 2.6875 -3.390625 L 1.484375 -3.390625 L 1.484375 -4.828125 L 1.25 -4.828125 C 1.234375 -4.125 0.90625 -3.375 0.15625 -3.34375 L 0.15625 -3.125 L 0.875 -3.125 L 0.875 -0.984375 C 0.875 -0.0625 1.609375 0.078125 1.96875 0.078125 C 2.515625 0.078125 2.828125 -0.390625 2.828125 -0.984375 Z M 2.828125 -0.984375 "/>
</g>
<g id="glyph-0-6">
<path d="M 4.125 -3.15625 C 4.125 -3.28125 4.03125 -3.546875 3.671875 -3.546875 C 3.53125 -3.546875 3.15625 -3.515625 2.78125 -3.1875 C 2.578125 -3.328125 2.265625 -3.46875 1.890625 -3.46875 C 1.09375 -3.46875 0.515625 -2.921875 0.515625 -2.3125 C 0.515625 -1.9375 0.71875 -1.671875 0.890625 -1.515625 C 0.71875 -1.3125 0.65625 -1.0625 0.65625 -0.875 C 0.65625 -0.546875 0.8125 -0.3125 0.984375 -0.171875 C 0.5625 -0.0625 0.234375 0.25 0.234375 0.609375 C 0.234375 1.171875 1.0625 1.609375 2.125 1.609375 C 3.125 1.609375 4.015625 1.203125 4.015625 0.59375 C 4.015625 0.171875 3.75 -0.171875 3.484375 -0.296875 C 3.015625 -0.546875 2.625 -0.546875 1.828125 -0.546875 L 1.390625 -0.546875 C 1.140625 -0.5625 0.9375 -0.78125 0.9375 -1.0625 C 0.9375 -1.25 0.984375 -1.328125 1.046875 -1.390625 C 1.375 -1.1875 1.6875 -1.15625 1.890625 -1.15625 C 2.671875 -1.15625 3.265625 -1.703125 3.265625 -2.3125 C 3.265625 -2.609375 3.125 -2.859375 2.9375 -3.0625 C 3.046875 -3.15625 3.3125 -3.328125 3.703125 -3.328125 C 3.671875 -3.3125 3.625 -3.265625 3.625 -3.140625 C 3.625 -3 3.734375 -2.90625 3.875 -2.90625 C 3.984375 -2.90625 4.125 -2.96875 4.125 -3.15625 Z M 2.625 -2.3125 C 2.625 -2.015625 2.59375 -1.8125 2.46875 -1.65625 C 2.296875 -1.4375 2.03125 -1.390625 1.890625 -1.390625 C 1.140625 -1.390625 1.140625 -2.140625 1.140625 -2.3125 C 1.140625 -2.59375 1.1875 -2.8125 1.3125 -2.96875 C 1.4375 -3.140625 1.671875 -3.234375 1.890625 -3.234375 C 2.625 -3.234375 2.625 -2.484375 2.625 -2.3125 Z M 3.53125 0.59375 C 3.53125 1.015625 2.921875 1.390625 2.125 1.390625 C 1.328125 1.390625 0.71875 1.015625 0.71875 0.59375 C 0.71875 0.4375 0.84375 -0.03125 1.5 -0.03125 L 2.265625 -0.03125 C 2.484375 -0.03125 3.53125 -0.03125 3.53125 0.59375 Z M 3.53125 0.59375 "/>
</g>
<g id="glyph-0-7">
<path d="M 3.078125 -2.96875 C 3.078125 -3.25 2.828125 -3.46875 2.46875 -3.46875 C 1.953125 -3.46875 1.59375 -3.078125 1.421875 -2.640625 L 1.421875 -3.46875 L 0.28125 -3.375 L 0.28125 -3.125 C 0.828125 -3.125 0.890625 -3.0625 0.890625 -2.6875 L 0.890625 -0.609375 C 0.890625 -0.265625 0.796875 -0.265625 0.28125 -0.265625 L 0.28125 0 C 0.59375 -0.03125 1.03125 -0.03125 1.21875 -0.03125 C 1.703125 -0.03125 1.71875 -0.03125 2.234375 0 L 2.234375 -0.265625 L 2.078125 -0.265625 C 1.484375 -0.265625 1.46875 -0.34375 1.46875 -0.625 L 1.46875 -1.796875 C 1.46875 -2.375 1.71875 -3.234375 2.5 -3.25 C 2.4375 -3.21875 2.359375 -3.15625 2.359375 -2.96875 C 2.359375 -2.734375 2.5625 -2.625 2.71875 -2.625 C 2.90625 -2.625 3.078125 -2.75 3.078125 -2.96875 Z M 3.078125 -2.96875 "/>
</g>
<g id="glyph-0-8">
<path d="M 2.078125 0 L 2.078125 -0.265625 C 1.5625 -0.265625 1.53125 -0.296875 1.53125 -0.609375 L 1.53125 -3.46875 L 0.359375 -3.375 L 0.359375 -3.125 C 0.875 -3.125 0.953125 -3.078125 0.953125 -2.6875 L 0.953125 -0.609375 C 0.953125 -0.265625 0.84375 -0.265625 0.34375 -0.265625 L 0.34375 0 C 0.65625 -0.03125 1.09375 -0.03125 1.21875 -0.03125 C 1.328125 -0.03125 1.796875 -0.03125 2.078125 0 Z M 1.625 -4.734375 C 1.625 -4.984375 1.421875 -5.171875 1.1875 -5.171875 C 0.953125 -5.171875 0.75 -4.984375 0.75 -4.734375 C 0.75 -4.5 0.9375 -4.296875 1.1875 -4.296875 C 1.4375 -4.296875 1.625 -4.5 1.625 -4.734375 Z M 1.625 -4.734375 "/>
</g>
<g id="glyph-0-9">
<path d="M 2.140625 0 L 2.140625 -0.265625 C 1.625 -0.265625 1.53125 -0.265625 1.53125 -0.609375 L 1.53125 -5.453125 L 0.34375 -5.375 L 0.34375 -5.109375 C 0.875 -5.109375 0.953125 -5.046875 0.953125 -4.671875 L 0.953125 -0.609375 C 0.953125 -0.265625 0.84375 -0.265625 0.34375 -0.265625 L 0.34375 0 C 0.65625 -0.03125 1.09375 -0.03125 1.234375 -0.03125 C 1.390625 -0.03125 1.828125 -0.03125 2.140625 0 Z M 2.140625 0 "/>
</g>
<g id="glyph-0-10">
<path d="M 3.53125 -0.9375 C 3.53125 -0.96875 3.515625 -1.046875 3.40625 -1.046875 C 3.3125 -1.046875 3.296875 -1 3.28125 -0.953125 C 3 -0.1875 2.3125 -0.171875 2.171875 -0.171875 C 1.796875 -0.171875 1.4375 -0.328125 1.1875 -0.6875 C 0.953125 -1.046875 0.953125 -1.5625 0.953125 -1.796875 L 3.3125 -1.796875 C 3.484375 -1.796875 3.53125 -1.796875 3.53125 -1.96875 C 3.53125 -2.671875 3.140625 -3.5 2.015625 -3.5 C 1.015625 -3.5 0.234375 -2.703125 0.234375 -1.71875 C 0.234375 -0.703125 1.109375 0.078125 2.109375 0.078125 C 3.140625 0.078125 3.53125 -0.765625 3.53125 -0.9375 Z M 2.984375 -2 L 0.96875 -2 C 1.03125 -3.09375 1.71875 -3.28125 2.015625 -3.28125 C 2.953125 -3.28125 2.984375 -2.171875 2.984375 -2 Z M 2.984375 -2 "/>
</g>
<g id="glyph-0-11">
<path d="M 3.578125 0 L 3.578125 -0.265625 L 3.296875 -0.265625 C 2.546875 -0.265625 2.515625 -0.359375 2.515625 -0.640625 L 2.515625 -5 C 2.515625 -5.21875 2.5 -5.21875 2.28125 -5.21875 C 1.953125 -4.90625 1.53125 -4.71875 0.765625 -4.71875 L 0.765625 -4.46875 C 0.984375 -4.46875 1.421875 -4.46875 1.890625 -4.671875 L 1.890625 -0.640625 C 1.890625 -0.359375 1.859375 -0.265625 1.09375 -0.265625 L 0.8125 -0.265625 L 0.8125 0 C 1.140625 -0.03125 1.828125 -0.03125 2.203125 -0.03125 C 2.5625 -0.03125 3.25 -0.03125 3.578125 0 Z M 3.578125 0 "/>
</g>
<g id="glyph-0-12">
<path d="M 3.0625 -1.015625 C 3.0625 -1.390625 2.84375 -1.9375 1.890625 -2.109375 C 1.8125 -2.125 1.375 -2.203125 1.34375 -2.203125 C 1.09375 -2.265625 0.71875 -2.421875 0.71875 -2.75 C 0.71875 -2.984375 0.890625 -3.3125 1.65625 -3.3125 C 2.546875 -3.3125 2.59375 -2.671875 2.609375 -2.4375 C 2.609375 -2.375 2.671875 -2.359375 2.71875 -2.359375 C 2.859375 -2.359375 2.859375 -2.40625 2.859375 -2.5625 L 2.859375 -3.296875 C 2.859375 -3.421875 2.859375 -3.5 2.75 -3.5 C 2.703125 -3.5 2.6875 -3.5 2.5625 -3.375 C 2.546875 -3.375 2.46875 -3.296875 2.4375 -3.296875 C 2.4375 -3.296875 2.421875 -3.296875 2.375 -3.328125 C 2.25 -3.421875 2.015625 -3.5 1.65625 -3.5 C 0.53125 -3.5 0.28125 -2.90625 0.28125 -2.53125 C 0.28125 -2.140625 0.578125 -1.90625 0.59375 -1.890625 C 0.921875 -1.65625 1.109375 -1.625 1.640625 -1.53125 C 2.015625 -1.453125 2.640625 -1.34375 2.640625 -0.8125 C 2.640625 -0.5 2.421875 -0.140625 1.6875 -0.140625 C 0.875 -0.140625 0.65625 -0.75 0.546875 -1.171875 C 0.515625 -1.265625 0.5 -1.3125 0.40625 -1.3125 C 0.28125 -1.3125 0.28125 -1.25 0.28125 -1.09375 L 0.28125 -0.125 C 0.28125 0 0.28125 0.078125 0.390625 0.078125 C 0.4375 0.078125 0.4375 0.078125 0.578125 -0.078125 C 0.625 -0.125 0.71875 -0.21875 0.75 -0.265625 C 1.109375 0.0625 1.484375 0.078125 1.703125 0.078125 C 2.71875 0.078125 3.0625 -0.5 3.0625 -1.015625 Z M 3.0625 -1.015625 "/>
</g>
<g id="glyph-0-13">
<path d="M 6.875 0 L 6.875 -0.265625 C 6.359375 -0.265625 6.265625 -0.265625 6.265625 -0.609375 L 6.265625 -2.375 C 6.265625 -3.015625 5.984375 -3.46875 5.109375 -3.46875 C 4.375 -3.46875 4 -2.96875 3.875 -2.75 C 3.734375 -3.3125 3.265625 -3.46875 2.75 -3.46875 C 1.96875 -3.46875 1.609375 -2.921875 1.5 -2.71875 L 1.484375 -2.71875 L 1.484375 -3.46875 L 0.328125 -3.375 L 0.328125 -3.125 C 0.875 -3.125 0.9375 -3.0625 0.9375 -2.6875 L 0.9375 -0.609375 C 0.9375 -0.265625 0.84375 -0.265625 0.328125 -0.265625 L 0.328125 0 C 0.671875 -0.03125 1.03125 -0.03125 1.25 -0.03125 C 1.46875 -0.03125 1.8125 -0.03125 2.15625 0 L 2.15625 -0.265625 C 1.640625 -0.265625 1.546875 -0.265625 1.546875 -0.609375 L 1.546875 -2.03125 C 1.546875 -2.859375 2.1875 -3.25 2.6875 -3.25 C 3.203125 -3.25 3.296875 -2.84375 3.296875 -2.40625 L 3.296875 -0.609375 C 3.296875 -0.265625 3.203125 -0.265625 2.6875 -0.265625 L 2.6875 0 C 3.03125 -0.03125 3.375 -0.03125 3.59375 -0.03125 C 3.828125 -0.03125 4.171875 -0.03125 4.515625 0 L 4.515625 -0.265625 C 4 -0.265625 3.90625 -0.265625 3.90625 -0.609375 L 3.90625 -2.03125 C 3.90625 -2.859375 4.53125 -3.25 5.046875 -3.25 C 5.5625 -3.25 5.65625 -2.84375 5.65625 -2.40625 L 5.65625 -0.609375 C 5.65625 -0.265625 5.5625 -0.265625 5.046875 -0.265625 L 5.046875 0 C 5.390625 -0.03125 5.734375 -0.03125 5.953125 -0.03125 C 6.1875 -0.03125 6.53125 -0.03125 6.875 0 Z M 6.875 0 "/>
</g>
<g id="glyph-0-14">
<path d="M 4.5 0 L 4.5 -0.265625 C 3.984375 -0.265625 3.890625 -0.265625 3.890625 -0.609375 L 3.890625 -2.375 C 3.890625 -3.046875 3.59375 -3.46875 2.75 -3.46875 C 1.953125 -3.46875 1.59375 -2.90625 1.5 -2.71875 L 1.484375 -2.71875 L 1.484375 -3.46875 L 0.328125 -3.375 L 0.328125 -3.125 C 0.875 -3.125 0.9375 -3.0625 0.9375 -2.6875 L 0.9375 -0.609375 C 0.9375 -0.265625 0.84375 -0.265625 0.328125 -0.265625 L 0.328125 0 C 0.671875 -0.03125 1.03125 -0.03125 1.25 -0.03125 C 1.46875 -0.03125 1.8125 -0.03125 2.15625 0 L 2.15625 -0.265625 C 1.640625 -0.265625 1.546875 -0.265625 1.546875 -0.609375 L 1.546875 -2.03125 C 1.546875 -2.859375 2.1875 -3.25 2.671875 -3.25 C 3.171875 -3.25 3.28125 -2.90625 3.28125 -2.40625 L 3.28125 -0.609375 C 3.28125 -0.265625 3.1875 -0.265625 2.671875 -0.265625 L 2.671875 0 C 3.015625 -0.03125 3.375 -0.03125 3.59375 -0.03125 C 3.828125 -0.03125 4.15625 -0.03125 4.5 0 Z M 4.5 0 "/>
</g>
<g id="glyph-0-15">
<path d="M 3.53125 -0.9375 C 3.53125 -1.03125 3.4375 -1.03125 3.40625 -1.03125 C 3.34375 -1.03125 3.3125 -1.03125 3.28125 -0.953125 C 3.234375 -0.78125 3 -0.171875 2.203125 -0.171875 C 1.703125 -0.171875 1 -0.546875 1 -1.703125 C 1 -2.84375 1.59375 -3.265625 2.171875 -3.265625 C 2.25 -3.265625 2.671875 -3.265625 2.953125 -3.125 C 2.71875 -3.046875 2.6875 -2.875 2.6875 -2.78125 C 2.6875 -2.5625 2.84375 -2.40625 3.0625 -2.40625 C 3.28125 -2.40625 3.453125 -2.546875 3.453125 -2.78125 C 3.453125 -3.265625 2.90625 -3.5 2.140625 -3.5 C 1.03125 -3.5 0.28125 -2.640625 0.28125 -1.703125 C 0.28125 -0.703125 1.109375 0.078125 2.125 0.078125 C 3.25 0.078125 3.53125 -0.84375 3.53125 -0.9375 Z M 3.53125 -0.9375 "/>
</g>
<g id="glyph-0-16">
<path d="M 4.125 -0.703125 L 4.125 -1.140625 L 3.875 -1.140625 L 3.875 -0.703125 C 3.875 -0.390625 3.75 -0.265625 3.578125 -0.265625 C 3.28125 -0.265625 3.28125 -0.625 3.28125 -0.703125 L 3.28125 -2.34375 C 3.28125 -3.109375 2.53125 -3.5 1.796875 -3.5 C 1.125 -3.5 0.53125 -3.25 0.53125 -2.734375 C 0.53125 -2.5 0.703125 -2.359375 0.90625 -2.359375 C 1.140625 -2.359375 1.296875 -2.515625 1.296875 -2.734375 C 1.296875 -2.921875 1.171875 -3.046875 1 -3.09375 C 1.296875 -3.28125 1.71875 -3.28125 1.78125 -3.28125 C 2.234375 -3.28125 2.671875 -2.984375 2.671875 -2.328125 L 2.671875 -2.09375 C 2.21875 -2.0625 1.671875 -2.046875 1.109375 -1.8125 C 0.40625 -1.515625 0.265625 -1.0625 0.265625 -0.796875 C 0.265625 -0.125 1.078125 0.078125 1.640625 0.078125 C 2.21875 0.078125 2.578125 -0.25 2.75 -0.5625 C 2.796875 -0.265625 3 0.046875 3.359375 0.046875 C 3.4375 0.046875 4.125 0.015625 4.125 -0.703125 Z M 2.671875 -1.109375 C 2.671875 -0.34375 2.015625 -0.140625 1.703125 -0.140625 C 1.28125 -0.140625 0.9375 -0.421875 0.9375 -0.796875 C 0.9375 -1.3125 1.421875 -1.84375 2.671875 -1.890625 Z M 2.671875 -1.109375 "/>
</g>
<g id="glyph-0-17">
<path d="M 3.53125 -0.9375 C 3.53125 -0.96875 3.515625 -1.046875 3.40625 -1.046875 C 3.3125 -1.046875 3.296875 -1 3.28125 -0.953125 C 3 -0.1875 2.3125 -0.171875 2.171875 -0.171875 C 1.796875 -0.171875 1.4375 -0.328125 1.1875 -0.6875 C 0.953125 -1.046875 0.953125 -1.5625 0.953125 -1.796875 L 3.3125 -1.796875 C 3.484375 -1.796875 3.53125 -1.796875 3.53125 -1.96875 C 3.53125 -2.671875 3.140625 -3.5 2.015625 -3.5 C 1.015625 -3.5 0.234375 -2.703125 0.234375 -1.71875 C 0.234375 -0.703125 1.109375 0.078125 2.109375 0.078125 C 3.140625 0.078125 3.53125 -0.765625 3.53125 -0.9375 Z M 2.984375 -2 L 0.96875 -2 C 1.03125 -3.09375 1.71875 -3.28125 2.015625 -3.28125 C 2.953125 -3.28125 2.984375 -2.171875 2.984375 -2 Z M 2.40625 -4.171875 L 1.390625 -5.359375 C 1.28125 -5.484375 1.171875 -5.484375 1.140625 -5.484375 C 1 -5.484375 0.828125 -5.359375 0.828125 -5.171875 C 0.828125 -5.046875 0.890625 -4.96875 0.984375 -4.90625 L 2.25 -3.984375 Z M 2.40625 -4.171875 "/>
</g>
<g id="glyph-0-18">
<path d="M 3.828125 -1.40625 L 3.578125 -1.40625 C 3.546875 -1.25 3.484375 -0.859375 3.390625 -0.703125 C 3.34375 -0.640625 2.734375 -0.640625 2.609375 -0.640625 L 1.171875 -0.640625 L 2.265625 -1.609375 C 2.390625 -1.71875 2.71875 -1.984375 2.859375 -2.09375 C 3.34375 -2.53125 3.828125 -2.96875 3.828125 -3.6875 C 3.828125 -4.625 3.015625 -5.21875 2.015625 -5.21875 C 1.0625 -5.21875 0.421875 -4.515625 0.421875 -3.8125 C 0.421875 -3.421875 0.734375 -3.375 0.84375 -3.375 C 1.015625 -3.375 1.265625 -3.484375 1.265625 -3.78125 C 1.265625 -4.203125 0.859375 -4.203125 0.765625 -4.203125 C 1 -4.765625 1.53125 -4.96875 1.9375 -4.96875 C 2.671875 -4.96875 3.0625 -4.34375 3.0625 -3.6875 C 3.0625 -2.875 2.484375 -2.265625 1.53125 -1.328125 L 0.515625 -0.296875 C 0.421875 -0.21875 0.421875 -0.203125 0.421875 0 L 3.59375 0 Z M 3.828125 -1.40625 "/>
</g>
<g id="glyph-0-19">
<path d="M 3.890625 -1.34375 C 3.890625 -2 3.359375 -2.59375 2.546875 -2.765625 C 3.1875 -2.984375 3.65625 -3.515625 3.65625 -4.15625 C 3.65625 -4.78125 2.9375 -5.21875 2.09375 -5.21875 C 1.25 -5.21875 0.59375 -4.765625 0.59375 -4.171875 C 0.59375 -3.875 0.796875 -3.75 1 -3.75 C 1.25 -3.75 1.40625 -3.9375 1.40625 -4.15625 C 1.40625 -4.453125 1.15625 -4.5625 0.984375 -4.5625 C 1.3125 -5 1.9375 -5.015625 2.078125 -5.015625 C 2.28125 -5.015625 2.890625 -4.953125 2.890625 -4.15625 C 2.890625 -3.59375 2.65625 -3.265625 2.546875 -3.140625 C 2.3125 -2.90625 2.125 -2.890625 1.640625 -2.859375 C 1.484375 -2.84375 1.421875 -2.84375 1.421875 -2.734375 C 1.421875 -2.625 1.484375 -2.625 1.625 -2.625 L 2.03125 -2.625 C 2.65625 -2.625 3.0625 -2.171875 3.0625 -1.34375 C 3.0625 -0.359375 2.5 -0.078125 2.0625 -0.078125 C 1.625 -0.078125 1.03125 -0.234375 0.75 -0.640625 C 1.03125 -0.640625 1.234375 -0.828125 1.234375 -1.078125 C 1.234375 -1.34375 1.046875 -1.515625 0.796875 -1.515625 C 0.578125 -1.515625 0.359375 -1.390625 0.359375 -1.0625 C 0.359375 -0.328125 1.171875 0.171875 2.078125 0.171875 C 3.15625 0.171875 3.890625 -0.5625 3.890625 -1.34375 Z M 3.890625 -1.34375 "/>
</g>
<g id="glyph-0-20">
<path d="M 2.828125 1.875 C 2.828125 1.84375 2.828125 1.828125 2.71875 1.734375 C 1.625 0.71875 1.34375 -0.75 1.34375 -1.96875 C 1.34375 -4.234375 2.296875 -5.296875 2.703125 -5.65625 C 2.828125 -5.75 2.828125 -5.765625 2.828125 -5.796875 C 2.828125 -5.84375 2.796875 -5.890625 2.71875 -5.890625 C 2.59375 -5.890625 2.1875 -5.5 2.125 -5.421875 C 1.046875 -4.328125 0.828125 -2.90625 0.828125 -1.96875 C 0.828125 -0.203125 1.578125 1.203125 2.671875 1.96875 C 2.734375 1.96875 2.828125 1.96875 2.828125 1.875 Z M 2.828125 1.875 "/>
</g>
<g id="glyph-0-21">
<path d="M 4.34375 0 L 4.34375 -0.265625 C 4.015625 -0.265625 3.859375 -0.296875 3.578125 -0.65625 L 2.40625 -2.140625 L 3.09375 -2.671875 C 3.625 -3.078125 3.953125 -3.125 4.15625 -3.125 L 4.15625 -3.390625 C 3.96875 -3.359375 3.859375 -3.359375 3.53125 -3.359375 C 3.140625 -3.359375 3.015625 -3.375 2.671875 -3.390625 L 2.671875 -3.125 C 2.828125 -3.125 2.859375 -3.015625 2.859375 -2.96875 C 2.859375 -2.8125 2.6875 -2.671875 2.625 -2.625 L 1.46875 -1.71875 L 1.46875 -5.453125 L 0.28125 -5.375 L 0.28125 -5.109375 C 0.828125 -5.109375 0.890625 -5.046875 0.890625 -4.671875 L 0.890625 -0.609375 C 0.890625 -0.265625 0.796875 -0.265625 0.28125 -0.265625 L 0.28125 0 C 0.59375 -0.03125 1.03125 -0.03125 1.15625 -0.03125 C 1.328125 -0.03125 1.734375 -0.03125 2.046875 0 L 2.046875 -0.265625 C 1.53125 -0.265625 1.4375 -0.265625 1.4375 -0.609375 L 1.4375 -1.375 L 1.984375 -1.796875 C 2.015625 -1.796875 2.21875 -1.53125 2.34375 -1.375 C 2.46875 -1.203125 2.59375 -1.046875 2.71875 -0.890625 C 2.84375 -0.734375 3 -0.53125 3 -0.421875 C 3 -0.28125 2.859375 -0.265625 2.75 -0.265625 L 2.75 0 C 3.109375 -0.03125 3.46875 -0.03125 3.59375 -0.03125 C 3.90625 -0.03125 4.0625 -0.03125 4.34375 0 Z M 4.34375 0 "/>
</g>
<g id="glyph-0-22">
<path d="M 2.359375 -1.4375 L 2.359375 -1.953125 L 0.09375 -1.953125 L 0.09375 -1.4375 Z M 2.359375 -1.4375 "/>
</g>
<g id="glyph-0-23">
<path d="M 6.015625 -5.109375 L 6.015625 -5.375 C 5.65625 -5.34375 5.28125 -5.34375 5.078125 -5.34375 C 4.859375 -5.34375 4.484375 -5.34375 4.125 -5.375 L 4.125 -5.109375 C 4.9375 -5.109375 4.9375 -4.734375 4.9375 -4.53125 L 4.9375 -1.171875 L 1.953125 -5.25 C 1.859375 -5.359375 1.859375 -5.375 1.6875 -5.375 L 0.359375 -5.375 L 0.359375 -5.109375 L 0.578125 -5.109375 C 0.71875 -5.109375 0.78125 -5.109375 0.953125 -5.09375 C 1.15625 -5.0625 1.15625 -5.0625 1.15625 -4.90625 L 1.15625 -0.84375 C 1.15625 -0.640625 1.15625 -0.265625 0.359375 -0.265625 L 0.359375 0 C 0.71875 -0.03125 1.09375 -0.03125 1.296875 -0.03125 C 1.5 -0.03125 1.890625 -0.03125 2.25 0 L 2.25 -0.265625 C 1.4375 -0.265625 1.4375 -0.640625 1.4375 -0.84375 L 1.4375 -4.84375 L 4.90625 -0.125 C 4.984375 -0.03125 5 0 5.078125 0 C 5.203125 0 5.203125 -0.078125 5.203125 -0.21875 L 5.203125 -4.53125 C 5.203125 -4.734375 5.203125 -5.109375 6.015625 -5.109375 Z M 6.015625 -5.109375 "/>
</g>
<g id="glyph-0-24">
<path d="M 2.484375 -1.96875 C 2.484375 -2.71875 2.34375 -3.609375 1.859375 -4.53125 C 1.453125 -5.265625 0.734375 -5.890625 0.578125 -5.890625 C 0.5 -5.890625 0.484375 -5.84375 0.484375 -5.796875 C 0.484375 -5.765625 0.484375 -5.75 0.578125 -5.65625 C 1.703125 -4.609375 1.953125 -3.171875 1.953125 -1.96875 C 1.953125 0.296875 1 1.359375 0.59375 1.71875 C 0.484375 1.828125 0.484375 1.828125 0.484375 1.875 C 0.484375 1.90625 0.5 1.96875 0.578125 1.96875 C 0.71875 1.96875 1.109375 1.5625 1.171875 1.5 C 2.25 0.390625 2.484375 -1.015625 2.484375 -1.96875 Z M 2.484375 -1.96875 "/>
</g>
<g id="glyph-0-25">
<path d="M 4.015625 -1.28125 L 4.015625 -1.546875 L 3.15625 -1.546875 L 3.15625 -5.078125 C 3.15625 -5.25 3.15625 -5.3125 2.984375 -5.3125 C 2.890625 -5.3125 2.875 -5.296875 2.796875 -5.1875 L 0.234375 -1.546875 L 0.234375 -1.28125 L 2.5 -1.28125 L 2.5 -0.640625 C 2.5 -0.34375 2.484375 -0.265625 1.859375 -0.265625 L 1.671875 -0.265625 L 1.671875 0 L 2.828125 -0.03125 L 3.984375 0 L 3.984375 -0.265625 L 3.796875 -0.265625 C 3.1875 -0.265625 3.15625 -0.34375 3.15625 -0.640625 L 3.15625 -1.28125 Z M 2.5625 -1.546875 L 0.515625 -1.546875 L 2.5625 -4.453125 Z M 2.5625 -1.546875 "/>
</g>
<g id="glyph-0-26">
<path d="M 4.4375 -1.703125 C 4.4375 -2.6875 3.609375 -3.46875 2.640625 -3.46875 C 2 -3.46875 1.609375 -3.125 1.46875 -2.984375 L 1.46875 -5.453125 L 0.28125 -5.375 L 0.28125 -5.109375 C 0.828125 -5.109375 0.890625 -5.046875 0.890625 -4.671875 L 0.890625 0 L 1.140625 0 L 1.421875 -0.484375 C 1.625 -0.21875 2 0.078125 2.546875 0.078125 C 3.5625 0.078125 4.4375 -0.6875 4.4375 -1.703125 Z M 3.734375 -1.703125 C 3.734375 -1.53125 3.734375 -0.96875 3.4375 -0.59375 C 3.15625 -0.25 2.765625 -0.140625 2.515625 -0.140625 C 2.125 -0.140625 1.796875 -0.34375 1.59375 -0.640625 C 1.5 -0.796875 1.5 -0.796875 1.5 -0.953125 L 1.5 -2.484375 C 1.5 -2.640625 1.5 -2.65625 1.625 -2.796875 C 1.859375 -3.078125 2.234375 -3.25 2.59375 -3.25 C 3 -3.25 3.3125 -3 3.484375 -2.765625 C 3.609375 -2.546875 3.734375 -2.28125 3.734375 -1.703125 Z M 3.734375 -1.703125 "/>
</g>
<g id="glyph-0-27">
<path d="M 2.078125 0 L 2.078125 -0.265625 C 1.5625 -0.265625 1.53125 -0.296875 1.53125 -0.609375 L 1.53125 -3.46875 L 0.359375 -3.375 L 0.359375 -3.125 C 0.875 -3.125 0.953125 -3.078125 0.953125 -2.6875 L 0.953125 -0.609375 C 0.953125 -0.265625 0.84375 -0.265625 0.34375 -0.265625 L 0.34375 0 C 0.65625 -0.03125 1.09375 -0.03125 1.21875 -0.03125 C 1.328125 -0.03125 1.796875 -0.03125 2.078125 0 Z M 2.40625 -4.15625 L 1.1875 -5.4375 L -0.03125 -4.15625 L 0.078125 -4.046875 L 1.1875 -4.890625 L 2.296875 -4.046875 Z M 2.40625 -4.15625 "/>
</g>
<g id="glyph-1-0">
<path d="M 7.875 -1.96875 C 7.875 -2.015625 7.828125 -2.0625 7.78125 -2.0625 C 6.90625 -2.328125 6.25 -3.046875 6.078125 -3.953125 C 6.078125 -4 6.03125 -4.046875 5.96875 -4.046875 L 5.84375 -4.046875 C 5.78125 -4.046875 5.734375 -4 5.734375 -3.90625 C 5.859375 -3.1875 6.265625 -2.5625 6.875 -2.140625 L 0.640625 -2.140625 C 0.515625 -2.140625 0.46875 -2.046875 0.46875 -1.96875 C 0.46875 -1.875 0.515625 -1.78125 0.640625 -1.78125 L 6.875 -1.78125 C 6.265625 -1.375 5.859375 -0.734375 5.734375 -0.03125 C 5.734375 0.0625 5.78125 0.109375 5.84375 0.109375 L 5.96875 0.109375 C 6.03125 0.109375 6.078125 0.078125 6.078125 0.03125 C 6.25 -0.875 6.90625 -1.609375 7.78125 -1.859375 C 7.828125 -1.875 7.875 -1.921875 7.875 -1.96875 Z M 7.875 -1.96875 "/>
</g>
<g id="glyph-1-1">
<path d="M 5.265625 -0.125 C 5.265625 -0.1875 5.25 -0.21875 5.15625 -0.3125 L 3.5 -1.96875 L 5.15625 -3.625 C 5.25 -3.703125 5.265625 -3.75 5.265625 -3.796875 C 5.265625 -3.90625 5.171875 -3.984375 5.078125 -3.984375 C 5 -3.984375 4.96875 -3.953125 4.90625 -3.875 L 3.25 -2.21875 L 1.59375 -3.875 C 1.5 -3.96875 1.46875 -3.984375 1.40625 -3.984375 C 1.296875 -3.984375 1.21875 -3.90625 1.21875 -3.796875 C 1.21875 -3.734375 1.25 -3.703125 1.328125 -3.625 L 2.984375 -1.96875 L 1.328125 -0.3125 C 1.234375 -0.21875 1.21875 -0.171875 1.21875 -0.125 C 1.21875 -0.03125 1.296875 0.0625 1.40625 0.0625 C 1.46875 0.0625 1.5 0.046875 1.59375 -0.046875 L 3.234375 -1.703125 L 4.890625 -0.046875 C 4.984375 0.046875 5.03125 0.0625 5.078125 0.0625 C 5.171875 0.0625 5.265625 -0.03125 5.265625 -0.125 Z M 5.265625 -0.125 "/>
</g>
<g id="glyph-2-0">
<path d="M 3.578125 0 L 3.578125 -0.265625 L 3.296875 -0.265625 C 2.546875 -0.265625 2.515625 -0.359375 2.515625 -0.640625 L 2.515625 -5 C 2.515625 -5.21875 2.5 -5.21875 2.28125 -5.21875 C 1.953125 -4.90625 1.53125 -4.71875 0.765625 -4.71875 L 0.765625 -4.46875 C 0.984375 -4.46875 1.421875 -4.46875 1.890625 -4.671875 L 1.890625 -0.640625 C 1.890625 -0.359375 1.859375 -0.265625 1.09375 -0.265625 L 0.8125 -0.265625 L 0.8125 0 C 1.140625 -0.03125 1.828125 -0.03125 2.203125 -0.03125 C 2.5625 -0.03125 3.25 -0.03125 3.578125 0 Z M 3.578125 0 "/>
</g>
<g id="glyph-2-1">
<path d="M 4.015625 -1.28125 L 4.015625 -1.546875 L 3.15625 -1.546875 L 3.15625 -5.078125 C 3.15625 -5.25 3.15625 -5.3125 2.984375 -5.3125 C 2.890625 -5.3125 2.875 -5.296875 2.796875 -5.1875 L 0.234375 -1.546875 L 0.234375 -1.28125 L 2.5 -1.28125 L 2.5 -0.640625 C 2.5 -0.34375 2.484375 -0.265625 1.859375 -0.265625 L 1.671875 -0.265625 L 1.671875 0 L 2.828125 -0.03125 L 3.984375 0 L 3.984375 -0.265625 L 3.796875 -0.265625 C 3.1875 -0.265625 3.15625 -0.34375 3.15625 -0.640625 L 3.15625 -1.28125 Z M 2.5625 -1.546875 L 0.515625 -1.546875 L 2.5625 -4.453125 Z M 2.5625 -1.546875 "/>
</g>
</g>
<clipPath id="clip-0">
<path clip-rule="nonzero" d="M 2.144531 0 L 72 0 L 72 30.195312 L 2.144531 30.195312 Z M 2.144531 0 "/>
</clipPath>
<clipPath id="clip-1">
<path clip-rule="nonzero" d="M 67 0 L 139 0 L 139 30.195312 L 67 30.195312 Z M 67 0 "/>
</clipPath>
<clipPath id="clip-2">
<path clip-rule="nonzero" d="M 134 0 L 207 0 L 207 30.195312 L 134 30.195312 Z M 134 0 "/>
</clipPath>
<clipPath id="clip-3">
<path clip-rule="nonzero" d="M 202 0 L 274 0 L 274 30.195312 L 202 30.195312 Z M 202 0 "/>
</clipPath>
<clipPath id="clip-4">
<path clip-rule="nonzero" d="M 269 0 L 338.523438 0 L 338.523438 30.195312 L 269 30.195312 Z M 269 0 "/>
</clipPath>
</defs>
<path fill-rule="nonzero" fill="rgb(93.998718%, 93.998718%, 100%)" fill-opacity="1" d="M 61.6875 3.363281 L 9.222656 3.363281 C 7.050781 3.363281 5.289062 5.125 5.289062 7.296875 L 5.289062 22.898438 C 5.289062 25.070312 7.050781 26.832031 9.222656 26.832031 L 61.6875 26.832031 C 63.859375 26.832031 65.621094 25.070312 65.621094 22.898438 L 65.621094 7.296875 C 65.621094 5.125 63.859375 3.363281 61.6875 3.363281 Z M 61.6875 3.363281 "/>
<g clip-path="url(#clip-0)">
<path fill="none" stroke-width="0.3985" stroke-linecap="butt" stroke-linejoin="miter" stroke="rgb(0%, 0%, 0%)" stroke-opacity="1" stroke-miterlimit="10" d="M 26.578705 11.889197 L -26.58064 11.889197 C -28.781265 11.889197 -30.566305 10.104158 -30.566305 7.903533 L -30.566305 -7.904555 C -30.566305 -10.10518 -28.781265 -11.890219 -26.58064 -11.890219 L 26.578705 -11.890219 C 28.77933 -11.890219 30.564369 -10.10518 30.564369 -7.904555 L 30.564369 7.903533 C 30.564369 10.104158 28.77933 11.889197 26.578705 11.889197 Z M 26.578705 11.889197 " transform="matrix(0.986935, 0, 0, -0.986935, 35.456033, 15.097152)"/>
</g>
<g fill="rgb(0%, 0%, 0%)" fill-opacity="1">
<use xlink:href="#glyph-0-0" x="20.092409" y="12.371236"/>
<use xlink:href="#glyph-0-1" x="24.355185" y="12.371236"/>
</g>
<g fill="rgb(0%, 0%, 0%)" fill-opacity="1">
<use xlink:href="#glyph-0-2" x="29.506942" y="12.371236"/>
<use xlink:href="#glyph-0-3" x="34.243092" y="12.371236"/>
<use xlink:href="#glyph-0-4" x="38.979243" y="12.371236"/>
<use xlink:href="#glyph-0-5" x="43.242019" y="12.371236"/>
<use xlink:href="#glyph-0-4" x="46.557244" y="12.371236"/>
</g>
<g fill="rgb(0%, 0%, 0%)" fill-opacity="1">
<use xlink:href="#glyph-1-0" x="20.64608" y="21.712581"/>
</g>
<g fill="rgb(0%, 0%, 0%)" fill-opacity="1">
<use xlink:href="#glyph-0-6" x="31.788581" y="21.712581"/>
<use xlink:href="#glyph-0-7" x="36.051357" y="21.712581"/>
<use xlink:href="#glyph-0-8" x="39.373803" y="21.712581"/>
<use xlink:href="#glyph-0-9" x="41.741477" y="21.712581"/>
<use xlink:href="#glyph-0-9" x="44.109151" y="21.712581"/>
<use xlink:href="#glyph-0-10" x="46.476825" y="21.712581"/>
</g>
<path fill-rule="nonzero" fill="rgb(93.998718%, 93.998718%, 100%)" fill-opacity="1" d="M 129.128906 3.90625 L 76.664062 3.90625 C 74.492188 3.90625 72.730469 5.667969 72.730469 7.839844 L 72.730469 22.355469 C 72.730469 24.527344 74.492188 26.289062 76.664062 26.289062 L 129.128906 26.289062 C 131.300781 26.289062 133.0625 24.527344 133.0625 22.355469 L 133.0625 7.839844 C 133.0625 5.667969 131.300781 3.90625 129.128906 3.90625 Z M 129.128906 3.90625 "/>
<g clip-path="url(#clip-1)">
<path fill="none" stroke-width="0.3985" stroke-linecap="butt" stroke-linejoin="miter" stroke="rgb(0%, 0%, 0%)" stroke-opacity="1" stroke-miterlimit="10" d="M 94.912863 11.339041 L 41.753519 11.339041 C 39.552894 11.339041 37.767854 9.554002 37.767854 7.353377 L 37.767854 -7.354398 C 37.767854 -9.555023 39.552894 -11.340063 41.753519 -11.340063 L 94.912863 -11.340063 C 97.113489 -11.340063 98.898528 -9.555023 98.898528 -7.354398 L 98.898528 7.353377 C 98.898528 9.554002 97.113489 11.339041 94.912863 11.339041 Z M 94.912863 11.339041 " transform="matrix(0.986935, 0, 0, -0.986935, 35.456033, 15.097152)"/>
</g>
<g fill="rgb(0%, 0%, 0%)" fill-opacity="1">
<use xlink:href="#glyph-0-11" x="79.438813" y="12.961424"/>
<use xlink:href="#glyph-0-1" x="83.701589" y="12.961424"/>
</g>
<g fill="rgb(0%, 0%, 0%)" fill-opacity="1">
<use xlink:href="#glyph-0-12" x="88.853346" y="12.961424"/>
<use xlink:href="#glyph-0-10" x="92.215909" y="12.961424"/>
<use xlink:href="#glyph-0-6" x="96.004508" y="12.961424"/>
<use xlink:href="#glyph-0-13" x="100.267284" y="12.961424"/>
<use xlink:href="#glyph-0-10" x="107.371109" y="12.961424"/>
<use xlink:href="#glyph-0-14" x="111.159708" y="12.961424"/>
</g>
<g fill="rgb(0%, 0%, 0%)" fill-opacity="1">
<use xlink:href="#glyph-0-5" x="115.663183" y="12.961424"/>
<use xlink:href="#glyph-0-10" x="118.978408" y="12.961424"/>
<use xlink:href="#glyph-0-7" x="122.767008" y="12.961424"/>
</g>
<g fill="rgb(0%, 0%, 0%)" fill-opacity="1">
<use xlink:href="#glyph-0-10" x="78.738089" y="22.302768"/>
<use xlink:href="#glyph-0-14" x="82.526688" y="22.302768"/>
</g>
<g fill="rgb(0%, 0%, 0%)" fill-opacity="1">
<use xlink:href="#glyph-0-15" x="90.046922" y="22.302768"/>
<use xlink:href="#glyph-0-16" x="93.835521" y="22.302768"/>
<use xlink:href="#glyph-0-7" x="98.098297" y="22.302768"/>
<use xlink:href="#glyph-0-16" x="101.420743" y="22.302768"/>
<use xlink:href="#glyph-0-15" x="105.68352" y="22.302768"/>
<use xlink:href="#glyph-0-5" x="109.472119" y="22.302768"/>
<use xlink:href="#glyph-0-17" x="112.787344" y="22.302768"/>
<use xlink:href="#glyph-0-7" x="116.575943" y="22.302768"/>
<use xlink:href="#glyph-0-10" x="119.89839" y="22.302768"/>
<use xlink:href="#glyph-0-12" x="123.686989" y="22.302768"/>
</g>
<path fill-rule="nonzero" fill="rgb(93.998718%, 93.998718%, 100%)" fill-opacity="1" d="M 196.570312 3.71875 L 144.101562 3.71875 C 141.929688 3.71875 140.167969 5.480469 140.167969 7.652344 L 140.167969 22.542969 C 140.167969 24.714844 141.929688 26.476562 144.101562 26.476562 L 196.570312 26.476562 C 198.742188 26.476562 200.5 24.714844 200.5 22.542969 L 200.5 7.652344 C 200.5 5.480469 198.742188 3.71875 196.570312 3.71875 Z M 196.570312 3.71875 "/>
<g clip-path="url(#clip-2)">
<path fill="none" stroke-width="0.3985" stroke-linecap="butt" stroke-linejoin="miter" stroke="rgb(0%, 0%, 0%)" stroke-opacity="1" stroke-miterlimit="10" d="M 163.247022 11.529023 L 110.08372 11.529023 C 107.883095 11.529023 106.098055 9.743984 106.098055 7.543359 L 106.098055 -7.54438 C 106.098055 -9.745005 107.883095 -11.530045 110.08372 -11.530045 L 163.247022 -11.530045 C 165.447648 -11.530045 167.228729 -9.745005 167.228729 -7.54438 L 167.228729 7.543359 C 167.228729 9.743984 165.447648 11.529023 163.247022 11.529023 Z M 163.247022 11.529023 " transform="matrix(0.986935, 0, 0, -0.986935, 35.456033, 15.097152)"/>
</g>
<g fill="rgb(0%, 0%, 0%)" fill-opacity="1">
<use xlink:href="#glyph-0-18" x="146.152691" y="12.726533"/>
<use xlink:href="#glyph-0-1" x="150.415467" y="12.726533"/>
</g>
<g fill="rgb(0%, 0%, 0%)" fill-opacity="1">
<use xlink:href="#glyph-0-14" x="155.567224" y="12.726533"/>
<use xlink:href="#glyph-0-4" x="160.303375" y="12.726533"/>
<use xlink:href="#glyph-0-7" x="164.566151" y="12.726533"/>
<use xlink:href="#glyph-0-13" x="167.888597" y="12.726533"/>
<use xlink:href="#glyph-0-16" x="174.992421" y="12.726533"/>
<use xlink:href="#glyph-0-9" x="179.255197" y="12.726533"/>
<use xlink:href="#glyph-0-8" x="181.622872" y="12.726533"/>
<use xlink:href="#glyph-0-12" x="183.990546" y="12.726533"/>
<use xlink:href="#glyph-0-10" x="187.353108" y="12.726533"/>
<use xlink:href="#glyph-0-7" x="191.141708" y="12.726533"/>
</g>
<g fill="rgb(0%, 0%, 0%)" fill-opacity="1">
<use xlink:href="#glyph-0-10" x="150.801157" y="22.067877"/>
<use xlink:href="#glyph-0-14" x="154.589757" y="22.067877"/>
</g>
<g fill="rgb(0%, 0%, 0%)" fill-opacity="1">
<use xlink:href="#glyph-2-0" x="162.10999" y="22.067877"/>
<use xlink:href="#glyph-2-1" x="166.372766" y="22.067877"/>
</g>
<g fill="rgb(0%, 0%, 0%)" fill-opacity="1">
<use xlink:href="#glyph-1-1" x="172.884826" y="22.067877"/>
</g>
<g fill="rgb(0%, 0%, 0%)" fill-opacity="1">
<use xlink:href="#glyph-2-0" x="181.634009" y="22.067877"/>
<use xlink:href="#glyph-2-1" x="185.896785" y="22.067877"/>
</g>
<path fill-rule="nonzero" fill="rgb(93.998718%, 93.998718%, 100%)" fill-opacity="1" d="M 264.007812 3.144531 L 211.542969 3.144531 C 209.371094 3.144531 207.609375 4.90625 207.609375 7.078125 L 207.609375 23.117188 C 207.609375 25.289062 209.371094 27.046875 211.542969 27.046875 L 264.007812 27.046875 C 266.179688 27.046875 267.941406 25.289062 267.941406 23.117188 L 267.941406 7.078125 C 267.941406 4.90625 266.179688 3.144531 264.007812 3.144531 Z M 264.007812 3.144531 "/>
<g clip-path="url(#clip-3)">
<path fill="none" stroke-width="0.3985" stroke-linecap="butt" stroke-linejoin="miter" stroke="rgb(0%, 0%, 0%)" stroke-opacity="1" stroke-miterlimit="10" d="M 231.577223 12.110843 L 178.417879 12.110843 C 176.217254 12.110843 174.432214 10.325804 174.432214 8.125179 L 174.432214 -8.1262 C 174.432214 -10.326825 176.217254 -12.107907 178.417879 -12.107907 L 231.577223 -12.107907 C 233.777849 -12.107907 235.562888 -10.326825 235.562888 -8.1262 L 235.562888 8.125179 C 235.562888 10.325804 233.777849 12.110843 231.577223 12.110843 Z M 231.577223 12.110843 " transform="matrix(0.986935, 0, 0, -0.986935, 35.456033, 15.097152)"/>
</g>
<g fill="rgb(0%, 0%, 0%)" fill-opacity="1">
<use xlink:href="#glyph-0-19" x="220.912067" y="12.153124"/>
<use xlink:href="#glyph-0-1" x="225.174843" y="12.153124"/>
</g>
<g fill="rgb(0%, 0%, 0%)" fill-opacity="1">
<use xlink:href="#glyph-0-15" x="230.3266" y="12.153124"/>
<use xlink:href="#glyph-0-9" x="234.1152" y="12.153124"/>
<use xlink:href="#glyph-0-16" x="236.482874" y="12.153124"/>
<use xlink:href="#glyph-0-12" x="240.74565" y="12.153124"/>
<use xlink:href="#glyph-0-12" x="244.108212" y="12.153124"/>
<use xlink:href="#glyph-0-10" x="247.470775" y="12.153124"/>
<use xlink:href="#glyph-0-7" x="251.259374" y="12.153124"/>
</g>
<g fill="rgb(0%, 0%, 0%)" fill-opacity="1">
<use xlink:href="#glyph-0-20" x="224.401871" y="21.493481"/>
<use xlink:href="#glyph-0-21" x="227.717096" y="21.493481"/>
<use xlink:href="#glyph-0-22" x="232.215757" y="21.493481"/>
<use xlink:href="#glyph-0-23" x="235.057608" y="21.493481"/>
<use xlink:href="#glyph-0-23" x="241.443347" y="21.493481"/>
<use xlink:href="#glyph-0-24" x="247.829087" y="21.493481"/>
</g>
<path fill-rule="nonzero" fill="rgb(93.998718%, 93.998718%, 100%)" fill-opacity="1" d="M 331.449219 3.90625 L 278.980469 3.90625 C 276.808594 3.90625 275.050781 5.667969 275.050781 7.839844 L 275.050781 22.355469 C 275.050781 24.527344 276.808594 26.289062 278.980469 26.289062 L 331.449219 26.289062 C 333.621094 26.289062 335.382812 24.527344 335.382812 22.355469 L 335.382812 7.839844 C 335.382812 5.667969 333.621094 3.90625 331.449219 3.90625 Z M 331.449219 3.90625 "/>
<g clip-path="url(#clip-4)">
<path fill="none" stroke-width="0.3985" stroke-linecap="butt" stroke-linejoin="miter" stroke="rgb(0%, 0%, 0%)" stroke-opacity="1" stroke-miterlimit="10" d="M 299.911382 11.339041 L 246.74808 11.339041 C 244.547455 11.339041 242.766373 9.554002 242.766373 7.353377 L 242.766373 -7.354398 C 242.766373 -9.555023 244.547455 -11.340063 246.74808 -11.340063 L 299.911382 -11.340063 C 302.112008 -11.340063 303.897047 -9.555023 303.897047 -7.354398 L 303.897047 7.353377 C 303.897047 9.554002 302.112008 11.339041 299.911382 11.339041 Z M 299.911382 11.339041 " transform="matrix(0.986935, 0, 0, -0.986935, 35.456033, 15.097152)"/>
</g>
<g fill="rgb(0%, 0%, 0%)" fill-opacity="1">
<use xlink:href="#glyph-0-25" x="282.504737" y="13.136111"/>
<use xlink:href="#glyph-0-1" x="286.767513" y="13.136111"/>
</g>
<g fill="rgb(0%, 0%, 0%)" fill-opacity="1">
<use xlink:href="#glyph-0-16" x="291.91927" y="13.136111"/>
<use xlink:href="#glyph-0-12" x="296.182046" y="13.136111"/>
<use xlink:href="#glyph-0-12" x="299.544609" y="13.136111"/>
<use xlink:href="#glyph-0-10" x="302.907171" y="13.136111"/>
<use xlink:href="#glyph-0-13" x="306.69577" y="13.136111"/>
</g>
<g fill="rgb(0%, 0%, 0%)" fill-opacity="1">
<use xlink:href="#glyph-0-26" x="313.566919" y="13.136111"/>
<use xlink:href="#glyph-0-9" x="318.30307" y="13.136111"/>
<use xlink:href="#glyph-0-10" x="320.670744" y="13.136111"/>
<use xlink:href="#glyph-0-7" x="324.459343" y="13.136111"/>
</g>
<g fill="rgb(0%, 0%, 0%)" fill-opacity="1">
<use xlink:href="#glyph-0-9" x="288.779673" y="22.477456"/>
<use xlink:href="#glyph-0-16" x="291.147347" y="22.477456"/>
</g>
<g fill="rgb(0%, 0%, 0%)" fill-opacity="1">
<use xlink:href="#glyph-0-15" x="298.194206" y="22.477456"/>
</g>
<g fill="rgb(0%, 0%, 0%)" fill-opacity="1">
<use xlink:href="#glyph-0-3" x="301.75013" y="22.477456"/>
<use xlink:href="#glyph-0-16" x="306.48628" y="22.477456"/>
<use xlink:href="#glyph-0-27" x="310.749056" y="22.477456"/>
<use xlink:href="#glyph-0-14" x="313.11673" y="22.477456"/>
<use xlink:href="#glyph-0-10" x="317.852881" y="22.477456"/>
</g>
<path fill="none" stroke-width="0.3985" stroke-linecap="butt" stroke-linejoin="miter" stroke="rgb(0%, 0%, 0%)" stroke-opacity="1" stroke-miterlimit="10" d="M 30.766225 -0.000510827 L 32.98664 -0.000510827 " transform="matrix(0.986935, 0, 0, -0.986935, 35.456033, 15.097152)"/>
<path fill-rule="nonzero" fill="rgb(0%, 0%, 0%)" fill-opacity="1" stroke-width="0.3985" stroke-linecap="butt" stroke-linejoin="miter" stroke="rgb(0%, 0%, 0%)" stroke-opacity="1" stroke-miterlimit="10" d="M 3.761681 -0.000510827 C 3.2986 0.11427 1.268167 0.751501 0.00161985 1.448102 L 0.00161985 -1.445166 C 1.268167 -0.752523 3.2986 -0.111334 3.761681 -0.000510827 Z M 3.761681 -0.000510827 " transform="matrix(0.986935, 0, 0, -0.986935, 68.01012, 15.097152)"/>
<path fill="none" stroke-width="0.3985" stroke-linecap="butt" stroke-linejoin="miter" stroke="rgb(0%, 0%, 0%)" stroke-opacity="1" stroke-miterlimit="10" d="M 99.096426 -0.000510827 L 101.316841 -0.000510827 " transform="matrix(0.986935, 0, 0, -0.986935, 35.456033, 15.097152)"/>
<path fill-rule="nonzero" fill="rgb(0%, 0%, 0%)" fill-opacity="1" stroke-width="0.3985" stroke-linecap="butt" stroke-linejoin="miter" stroke="rgb(0%, 0%, 0%)" stroke-opacity="1" stroke-miterlimit="10" d="M 3.759352 -0.000510827 C 3.300229 0.11427 1.269796 0.751501 -0.000709135 1.448102 L -0.000709135 -1.445166 C 1.269796 -0.752523 3.300229 -0.111334 3.759352 -0.000510827 Z M 3.759352 -0.000510827 " transform="matrix(0.986935, 0, 0, -0.986935, 135.449919, 15.097152)"/>
<path fill="none" stroke-width="0.3985" stroke-linecap="butt" stroke-linejoin="miter" stroke="rgb(0%, 0%, 0%)" stroke-opacity="1" stroke-miterlimit="10" d="M 167.430585 -0.000510827 L 169.651 -0.000510827 " transform="matrix(0.986935, 0, 0, -0.986935, 35.456033, 15.097152)"/>
<path fill-rule="nonzero" fill="rgb(0%, 0%, 0%)" fill-opacity="1" stroke-width="0.3985" stroke-linecap="butt" stroke-linejoin="miter" stroke="rgb(0%, 0%, 0%)" stroke-opacity="1" stroke-miterlimit="10" d="M 3.760991 -0.000510827 C 3.29791 0.11427 1.267477 0.751501 0.000929837 1.448102 L 0.000929837 -1.445166 C 1.267477 -0.752523 3.29791 -0.111334 3.760991 -0.000510827 Z M 3.760991 -0.000510827 " transform="matrix(0.986935, 0, 0, -0.986935, 202.889707, 15.097152)"/>
<path fill="none" stroke-width="0.3985" stroke-linecap="butt" stroke-linejoin="miter" stroke="rgb(0%, 0%, 0%)" stroke-opacity="1" stroke-miterlimit="10" d="M 235.760786 -0.000510827 L 237.981201 -0.000510827 " transform="matrix(0.986935, 0, 0, -0.986935, 35.456033, 15.097152)"/>
<path fill-rule="nonzero" fill="rgb(0%, 0%, 0%)" fill-opacity="1" stroke-width="0.3985" stroke-linecap="butt" stroke-linejoin="miter" stroke="rgb(0%, 0%, 0%)" stroke-opacity="1" stroke-miterlimit="10" d="M 3.76262 -0.000510827 C 3.299539 0.11427 1.269106 0.751501 -0.00139915 1.448102 L -0.00139915 -1.445166 C 1.269106 -0.752523 3.299539 -0.111334 3.76262 -0.000510827 Z M 3.76262 -0.000510827 " transform="matrix(0.986935, 0, 0, -0.986935, 270.329506, 15.097152)"/>
</svg>
