<?xml version="1.0" encoding="UTF-8"?>
<svg xmlns="http://www.w3.org/2000/svg" xmlns:xlink="http://www.w3.org/1999/xlink" width="229.724pt" height="119.381pt" viewBox="0 0 229.724 119.381">
<defs>
<g>
<g id="glyph-0-0">
<path d="M 4.15625 -5.859375 C 4.15625 -6.0625 3.984375 -6.1875 3.828125 -6.1875 C 3.609375 -6.1875 3.53125 -6.015625 3.484375 -5.9375 L 0.59375 0.1875 C 0.515625 0.328125 0.515625 0.34375 0.515625 0.40625 C 0.515625 0.609375 0.6875 0.734375 0.84375 0.734375 C 1.0625 0.734375 1.140625 0.578125 1.1875 0.484375 L 4.09375 -5.640625 C 4.15625 -5.78125 4.15625 -5.796875 4.15625 -5.859375 Z M 4.15625 -5.859375 "/>
</g>
<g id="glyph-0-1">
<path d="M 4.609375 -0.28125 C 4.609375 -0.578125 4.359375 -0.578125 4.234375 -0.578125 L 3.84375 -0.578125 L 3.84375 -2.609375 C 3.84375 -3.484375 3.40625 -3.890625 2.671875 -3.890625 C 2.25 -3.890625 1.84375 -3.734375 1.5 -3.4375 L 1.5 -5.078125 C 1.5 -5.375 1.421875 -5.453125 1.125 -5.453125 L 0.453125 -5.453125 C 0.328125 -5.453125 0.078125 -5.453125 0.078125 -5.171875 C 0.078125 -4.875 0.3125 -4.875 0.453125 -4.875 L 0.84375 -4.875 L 0.84375 -0.578125 L 0.453125 -0.578125 C 0.328125 -0.578125 0.078125 -0.578125 0.078125 -0.296875 C 0.078125 0 0.3125 0 0.453125 0 L 1.890625 0 C 2.015625 0 2.265625 0 2.265625 -0.28125 C 2.265625 -0.578125 2.03125 -0.578125 1.890625 -0.578125 L 1.5 -0.578125 L 1.5 -2.125 C 1.5 -3 2.171875 -3.3125 2.609375 -3.3125 C 3.046875 -3.3125 3.171875 -3.09375 3.171875 -2.5625 L 3.171875 -0.578125 L 2.890625 -0.578125 C 2.765625 -0.578125 2.5 -0.578125 2.5 -0.296875 C 2.5 0 2.75 0 2.890625 0 L 4.234375 0 C 4.359375 0 4.609375 0 4.609375 -0.28125 Z M 4.609375 -0.28125 "/>
</g>
<g id="glyph-0-2">
<path d="M 4.1875 -1.921875 C 4.1875 -3.03125 3.34375 -3.921875 2.34375 -3.921875 C 1.328125 -3.921875 0.484375 -3.03125 0.484375 -1.921875 C 0.484375 -0.828125 1.34375 0.046875 2.34375 0.046875 C 3.34375 0.046875 4.1875 -0.828125 4.1875 -1.921875 Z M 3.53125 -1.984375 C 3.53125 -1.1875 2.984375 -0.53125 2.34375 -0.53125 C 1.6875 -0.53125 1.15625 -1.1875 1.15625 -1.984375 C 1.15625 -2.78125 1.71875 -3.34375 2.34375 -3.34375 C 2.96875 -3.34375 3.53125 -2.78125 3.53125 -1.984375 Z M 3.53125 -1.984375 "/>
</g>
<g id="glyph-0-3">
<path d="M 4.609375 -0.28125 C 4.609375 -0.578125 4.40625 -0.578125 4.09375 -0.578125 L 4.09375 -2.6875 C 4.09375 -2.890625 4.09375 -3.890625 3.296875 -3.890625 C 3.21875 -3.890625 2.78125 -3.890625 2.421875 -3.4375 C 2.40625 -3.484375 2.234375 -3.890625 1.75 -3.890625 C 1.546875 -3.890625 1.25 -3.8125 0.984375 -3.59375 C 0.953125 -3.84375 0.78125 -3.84375 0.609375 -3.84375 L 0.328125 -3.84375 C 0.1875 -3.84375 -0.046875 -3.84375 -0.046875 -3.5625 C -0.046875 -3.265625 0.140625 -3.265625 0.453125 -3.265625 L 0.453125 -0.578125 C 0.140625 -0.578125 -0.046875 -0.578125 -0.046875 -0.28125 C -0.046875 0 0.1875 0 0.328125 0 L 1.125 0 C 1.265625 0 1.5 0 1.5 -0.28125 C 1.5 -0.578125 1.296875 -0.578125 0.984375 -0.578125 L 0.984375 -2.15625 C 0.984375 -2.90625 1.359375 -3.3125 1.71875 -3.3125 C 1.890625 -3.3125 2 -3.1875 2 -2.625 L 2 -0.578125 C 1.921875 -0.578125 1.671875 -0.578125 1.671875 -0.296875 C 1.671875 0 1.90625 0 2.046875 0 L 2.671875 0 C 2.8125 0 3.046875 0 3.046875 -0.28125 C 3.046875 -0.578125 2.859375 -0.578125 2.546875 -0.578125 L 2.546875 -2.15625 C 2.546875 -2.90625 2.90625 -3.3125 3.265625 -3.3125 C 3.4375 -3.3125 3.5625 -3.1875 3.5625 -2.625 L 3.5625 -0.578125 C 3.484375 -0.578125 3.21875 -0.578125 3.21875 -0.296875 C 3.21875 0 3.46875 0 3.59375 0 L 4.234375 0 C 4.359375 0 4.609375 0 4.609375 -0.28125 Z M 4.609375 -0.28125 "/>
</g>
<g id="glyph-0-4">
<path d="M 4.140625 -0.96875 C 4.140625 -1.15625 4 -1.234375 3.8125 -1.234375 C 3.6875 -1.234375 3.5625 -1.234375 3.484375 -1.046875 C 3.28125 -0.53125 2.703125 -0.53125 2.609375 -0.53125 C 2.09375 -0.53125 1.34375 -0.84375 1.15625 -1.6875 L 3.765625 -1.6875 C 3.9375 -1.6875 4.140625 -1.6875 4.140625 -2.03125 C 4.140625 -3.0625 3.5625 -3.921875 2.40625 -3.921875 C 1.328125 -3.921875 0.46875 -3 0.46875 -1.9375 C 0.46875 -0.84375 1.40625 0.046875 2.546875 0.046875 C 3.734375 0.046875 4.140625 -0.765625 4.140625 -0.96875 Z M 3.46875 -2.25 L 1.171875 -2.25 C 1.34375 -2.984375 1.90625 -3.34375 2.40625 -3.34375 C 3.03125 -3.34375 3.40625 -2.921875 3.46875 -2.25 Z M 3.46875 -2.25 "/>
</g>
<g id="glyph-0-5">
<path d="M 4 -1.15625 C 4 -1.46875 3.78125 -1.46875 3.671875 -1.46875 C 3.53125 -1.46875 3.359375 -1.453125 3.34375 -1.15625 C 3.328125 -0.734375 2.96875 -0.53125 2.671875 -0.53125 C 2 -0.53125 2 -1.015625 2 -1.234375 L 2 -3.265625 L 3.421875 -3.265625 C 3.546875 -3.265625 3.796875 -3.265625 3.796875 -3.546875 C 3.796875 -3.84375 3.5625 -3.84375 3.421875 -3.84375 L 2 -3.84375 L 2 -4.5625 C 2 -4.734375 2 -4.9375 1.671875 -4.9375 C 1.34375 -4.9375 1.34375 -4.734375 1.34375 -4.5625 L 1.34375 -3.84375 L 0.609375 -3.84375 C 0.46875 -3.84375 0.21875 -3.84375 0.21875 -3.546875 C 0.21875 -3.265625 0.46875 -3.265625 0.59375 -3.265625 L 1.34375 -3.265625 L 1.34375 -1.203125 C 1.34375 -0.265625 1.984375 0.046875 2.625 0.046875 C 3.390625 0.046875 4 -0.484375 4 -1.15625 Z M 4 -1.15625 "/>
</g>
<g id="glyph-0-6">
<path d="M 4.15625 -0.96875 C 4.15625 -1.15625 4.03125 -1.234375 3.828125 -1.234375 C 3.71875 -1.234375 3.59375 -1.234375 3.5 -1.046875 C 3.4375 -0.90625 3.296875 -0.53125 2.671875 -0.53125 C 1.90625 -0.53125 1.296875 -1.15625 1.296875 -1.921875 C 1.296875 -2.375 1.5625 -3.34375 2.71875 -3.34375 C 2.859375 -3.34375 2.984375 -3.328125 3.03125 -3.328125 C 3.203125 -3.3125 3.21875 -3.296875 3.21875 -3.21875 C 3.25 -2.921875 3.484375 -2.828125 3.625 -2.828125 C 3.875 -2.828125 4.046875 -3 4.046875 -3.25 C 4.046875 -3.921875 3.140625 -3.921875 2.71875 -3.921875 C 1.171875 -3.921875 0.640625 -2.71875 0.640625 -1.921875 C 0.640625 -0.84375 1.5 0.046875 2.609375 0.046875 C 3.875 0.046875 4.15625 -0.84375 4.15625 -0.96875 Z M 4.15625 -0.96875 "/>
</g>
<g id="glyph-0-7">
<path d="M 4.203125 -0.28125 C 4.203125 -0.578125 3.96875 -0.578125 3.828125 -0.578125 L 2.671875 -0.578125 L 2.671875 -5.078125 C 2.671875 -5.375 2.59375 -5.453125 2.296875 -5.453125 L 0.84375 -5.453125 C 0.71875 -5.453125 0.46875 -5.453125 0.46875 -5.171875 C 0.46875 -4.875 0.703125 -4.875 0.84375 -4.875 L 2 -4.875 L 2 -0.578125 L 0.84375 -0.578125 C 0.71875 -0.578125 0.46875 -0.578125 0.46875 -0.296875 C 0.46875 0 0.703125 0 0.84375 0 L 3.828125 0 C 3.96875 0 4.203125 0 4.203125 -0.28125 Z M 4.203125 -0.28125 "/>
</g>
<g id="glyph-0-8">
<path d="M 4.453125 -3.546875 C 4.453125 -3.84375 4.21875 -3.84375 4.078125 -3.84375 L 3.03125 -3.84375 C 2.90625 -3.84375 2.640625 -3.84375 2.640625 -3.5625 C 2.640625 -3.265625 2.890625 -3.265625 3.03125 -3.265625 L 3.25 -3.265625 L 2.34375 -0.484375 L 1.421875 -3.265625 L 1.65625 -3.265625 C 1.78125 -3.265625 2.03125 -3.265625 2.03125 -3.546875 C 2.03125 -3.84375 1.78125 -3.84375 1.65625 -3.84375 L 0.59375 -3.84375 C 0.46875 -3.84375 0.21875 -3.84375 0.21875 -3.5625 C 0.21875 -3.265625 0.453125 -3.265625 0.59375 -3.265625 L 0.859375 -3.265625 L 1.84375 -0.28125 C 1.9375 0.046875 2.15625 0.046875 2.34375 0.046875 C 2.5 0.046875 2.734375 0.046875 2.84375 -0.28125 L 3.8125 -3.265625 L 4.078125 -3.265625 C 4.21875 -3.265625 4.453125 -3.265625 4.453125 -3.546875 Z M 4.453125 -3.546875 "/>
</g>
<g id="glyph-0-9">
<path d="M 4.09375 -1.125 C 4.09375 -1.5625 3.8125 -1.84375 3.609375 -1.96875 C 3.25 -2.1875 3.03125 -2.234375 2.1875 -2.375 C 1.8125 -2.421875 1.21875 -2.53125 1.21875 -2.859375 C 1.21875 -3.09375 1.5 -3.34375 2.3125 -3.34375 C 3.125 -3.34375 3.15625 -3.03125 3.171875 -2.84375 C 3.1875 -2.59375 3.421875 -2.59375 3.5 -2.59375 C 3.828125 -2.59375 3.828125 -2.796875 3.828125 -2.96875 L 3.828125 -3.546875 C 3.828125 -3.671875 3.828125 -3.921875 3.546875 -3.921875 C 3.34375 -3.921875 3.296875 -3.8125 3.265625 -3.75 C 2.921875 -3.921875 2.484375 -3.921875 2.34375 -3.921875 C 0.78125 -3.921875 0.640625 -3.109375 0.640625 -2.859375 C 0.640625 -2.375 1 -2.171875 1.109375 -2.09375 C 1.40625 -1.90625 1.65625 -1.859375 2.578125 -1.71875 C 2.8125 -1.6875 3.515625 -1.5625 3.515625 -1.125 C 3.515625 -0.84375 3.25 -0.53125 2.40625 -0.53125 C 1.859375 -0.53125 1.5 -0.71875 1.328125 -1.25 C 1.265625 -1.421875 1.21875 -1.53125 0.96875 -1.53125 C 0.640625 -1.53125 0.640625 -1.328125 0.640625 -1.140625 L 0.640625 -0.328125 C 0.640625 -0.203125 0.640625 0.046875 0.921875 0.046875 C 1.0625 0.046875 1.1875 -0.015625 1.265625 -0.265625 C 1.703125 0.046875 2.21875 0.046875 2.40625 0.046875 C 3.875 0.046875 4.09375 -0.78125 4.09375 -1.125 Z M 4.09375 -1.125 "/>
</g>
<g id="glyph-0-10">
<path d="M 4.328125 -2.6875 C 4.328125 -4.109375 3.5625 -5.453125 2.375 -5.453125 L 0.53125 -5.453125 C 0.390625 -5.453125 0.140625 -5.453125 0.140625 -5.171875 C 0.140625 -4.875 0.390625 -4.875 0.53125 -4.875 L 0.71875 -4.875 L 0.71875 -0.578125 L 0.53125 -0.578125 C 0.390625 -0.578125 0.140625 -0.578125 0.140625 -0.296875 C 0.140625 0 0.390625 0 0.53125 0 L 2.375 0 C 3.546875 0 4.328125 -1.265625 4.328125 -2.6875 Z M 3.671875 -2.6875 C 3.671875 -1.65625 3.15625 -0.578125 2.1875 -0.578125 L 1.375 -0.578125 L 1.375 -4.875 L 2.1875 -4.875 C 3.203125 -4.875 3.671875 -3.671875 3.671875 -2.6875 Z M 3.671875 -2.6875 "/>
</g>
<g id="glyph-0-11">
<path d="M 4.609375 -0.28125 C 4.609375 -0.578125 4.359375 -0.578125 4.234375 -0.578125 L 3.84375 -0.578125 L 3.84375 -3.46875 C 3.84375 -3.765625 3.765625 -3.84375 3.46875 -3.84375 L 2.78125 -3.84375 C 2.65625 -3.84375 2.40625 -3.84375 2.40625 -3.5625 C 2.40625 -3.265625 2.65625 -3.265625 2.78125 -3.265625 L 3.171875 -3.265625 L 3.171875 -1.390625 C 3.171875 -0.640625 2.484375 -0.53125 2.1875 -0.53125 C 1.5 -0.53125 1.5 -0.796875 1.5 -1.078125 L 1.5 -3.46875 C 1.5 -3.765625 1.421875 -3.84375 1.125 -3.84375 L 0.453125 -3.84375 C 0.328125 -3.84375 0.078125 -3.84375 0.078125 -3.5625 C 0.078125 -3.265625 0.3125 -3.265625 0.453125 -3.265625 L 0.84375 -3.265625 L 0.84375 -1.03125 C 0.84375 -0.1875 1.4375 0.046875 2.125 0.046875 C 2.4375 0.046875 2.796875 0 3.171875 -0.265625 C 3.21875 0 3.390625 0 3.546875 0 L 4.234375 0 C 4.359375 0 4.609375 0 4.609375 -0.28125 Z M 4.609375 -0.28125 "/>
</g>
<g id="glyph-0-12">
<path d="M 4.609375 -0.28125 C 4.609375 -0.578125 4.359375 -0.578125 4.234375 -0.578125 L 3.84375 -0.578125 L 3.84375 -2.609375 C 3.84375 -3.484375 3.40625 -3.890625 2.671875 -3.890625 C 2.25 -3.890625 1.84375 -3.734375 1.5 -3.4375 C 1.5 -3.6875 1.484375 -3.84375 1.125 -3.84375 L 0.453125 -3.84375 C 0.328125 -3.84375 0.078125 -3.84375 0.078125 -3.5625 C 0.078125 -3.265625 0.3125 -3.265625 0.453125 -3.265625 L 0.84375 -3.265625 L 0.84375 -0.578125 L 0.453125 -0.578125 C 0.328125 -0.578125 0.078125 -0.578125 0.078125 -0.296875 C 0.078125 0 0.3125 0 0.453125 0 L 1.890625 0 C 2.015625 0 2.265625 0 2.265625 -0.28125 C 2.265625 -0.578125 2.03125 -0.578125 1.890625 -0.578125 L 1.5 -0.578125 L 1.5 -2.125 C 1.5 -3 2.171875 -3.3125 2.609375 -3.3125 C 3.046875 -3.3125 3.171875 -3.09375 3.171875 -2.5625 L 3.171875 -0.578125 L 2.890625 -0.578125 C 2.765625 -0.578125 2.5 -0.578125 2.5 -0.296875 C 2.5 0 2.75 0 2.890625 0 L 4.234375 0 C 4.359375 0 4.609375 0 4.609375 -0.28125 Z M 4.609375 -0.28125 "/>
</g>
<g id="glyph-0-13">
<path d="M 4.015625 -0.28125 C 4.015625 -0.578125 3.765625 -0.578125 3.625 -0.578125 L 2.671875 -0.578125 L 2.671875 -4.875 L 3.625 -4.875 C 3.75 -4.875 4.015625 -4.875 4.015625 -5.15625 C 4.015625 -5.453125 3.765625 -5.453125 3.625 -5.453125 L 1.046875 -5.453125 C 0.921875 -5.453125 0.65625 -5.453125 0.65625 -5.171875 C 0.65625 -4.875 0.90625 -4.875 1.046875 -4.875 L 2 -4.875 L 2 -0.578125 L 1.046875 -0.578125 C 0.921875 -0.578125 0.65625 -0.578125 0.65625 -0.296875 C 0.65625 0 0.90625 0 1.046875 0 L 3.625 0 C 3.75 0 4.015625 0 4.015625 -0.28125 Z M 4.015625 -0.28125 "/>
</g>
<g id="glyph-0-14">
<path d="M 4.625 -0.296875 C 4.625 -0.578125 4.390625 -0.578125 4.25 -0.578125 C 4.109375 -0.578125 3.921875 -0.578125 3.75 -0.640625 L 3.75 -2.53125 C 3.75 -3.21875 3.21875 -3.921875 1.96875 -3.921875 C 1.5625 -3.921875 0.65625 -3.921875 0.65625 -3.25 C 0.65625 -2.984375 0.859375 -2.828125 1.078125 -2.828125 C 1.21875 -2.828125 1.484375 -2.875 1.484375 -3.3125 C 1.734375 -3.34375 1.90625 -3.34375 1.984375 -3.34375 C 2.6875 -3.34375 3.09375 -3.046875 3.09375 -2.5 C 1.609375 -2.484375 0.421875 -2.0625 0.421875 -1.1875 C 0.421875 -0.515625 1.046875 0.046875 1.90625 0.046875 C 2.015625 0.046875 2.6875 0.046875 3.171875 -0.296875 C 3.390625 0 3.875 0 4.171875 0 C 4.421875 0 4.625 0 4.625 -0.296875 Z M 3.09375 -1.265625 C 3.09375 -1.046875 3.09375 -0.859375 2.734375 -0.6875 C 2.421875 -0.53125 2.015625 -0.53125 1.984375 -0.53125 C 1.453125 -0.53125 1.09375 -0.828125 1.09375 -1.1875 C 1.09375 -1.625 1.984375 -1.921875 3.09375 -1.9375 Z M 3.09375 -1.265625 "/>
</g>
<g id="glyph-0-15">
<path d="M 4.546875 -3.421875 C 4.546875 -3.671875 4.34375 -3.9375 3.875 -3.9375 C 3.671875 -3.9375 3.28125 -3.890625 2.9375 -3.625 C 2.6875 -3.796875 2.390625 -3.890625 2.078125 -3.890625 C 1.234375 -3.890625 0.578125 -3.234375 0.578125 -2.453125 C 0.578125 -2.125 0.703125 -1.84375 0.859375 -1.625 C 0.78125 -1.484375 0.6875 -1.25 0.6875 -1.015625 C 0.6875 -0.640625 0.875 -0.390625 0.890625 -0.375 C 0.28125 0 0.265625 0.578125 0.265625 0.71875 C 0.265625 1.5 1.203125 2.03125 2.34375 2.03125 C 3.46875 2.03125 4.421875 1.5 4.421875 0.71875 C 4.421875 -0.5625 2.78125 -0.5625 2.515625 -0.5625 L 1.875 -0.5625 C 1.8125 -0.5625 1.6875 -0.5625 1.625 -0.59375 C 1.484375 -0.59375 1.453125 -0.59375 1.34375 -0.703125 C 1.265625 -0.78125 1.234375 -0.890625 1.234375 -1.015625 C 1.234375 -1.046875 1.234375 -1.15625 1.28125 -1.234375 C 1.53125 -1.09375 1.796875 -1.015625 2.078125 -1.015625 C 2.921875 -1.015625 3.578125 -1.671875 3.578125 -2.453125 C 3.578125 -2.734375 3.5 -2.984375 3.34375 -3.21875 C 3.546875 -3.328125 3.671875 -3.34375 3.796875 -3.359375 C 3.859375 -3.125 4.046875 -3.046875 4.171875 -3.046875 C 4.375 -3.046875 4.546875 -3.21875 4.546875 -3.421875 Z M 2.921875 -2.453125 C 2.921875 -1.96875 2.53125 -1.59375 2.078125 -1.59375 C 1.625 -1.59375 1.234375 -1.96875 1.234375 -2.453125 C 1.234375 -2.9375 1.625 -3.3125 2.078125 -3.3125 C 2.53125 -3.3125 2.921875 -2.9375 2.921875 -2.453125 Z M 3.859375 0.71875 C 3.859375 1.078125 3.234375 1.46875 2.34375 1.46875 C 1.46875 1.46875 0.8125 1.09375 0.8125 0.71875 C 0.8125 0.390625 1.09375 0.015625 1.546875 -0.015625 L 2.09375 -0.015625 C 2.890625 -0.015625 3.859375 -0.015625 3.859375 0.71875 Z M 3.859375 0.71875 "/>
</g>
<g id="glyph-0-16">
<path d="M 4.34375 -3.3125 C 4.34375 -3.484375 4.234375 -3.890625 3.5 -3.890625 C 2.984375 -3.890625 2.421875 -3.671875 2 -3.1875 L 2 -3.46875 C 2 -3.765625 1.921875 -3.84375 1.625 -3.84375 L 0.625 -3.84375 C 0.484375 -3.84375 0.234375 -3.84375 0.234375 -3.5625 C 0.234375 -3.265625 0.484375 -3.265625 0.625 -3.265625 L 1.34375 -3.265625 L 1.34375 -0.578125 L 0.625 -0.578125 C 0.484375 -0.578125 0.234375 -0.578125 0.234375 -0.296875 C 0.234375 0 0.484375 0 0.625 0 L 2.984375 0 C 3.109375 0 3.375 0 3.375 -0.28125 C 3.375 -0.578125 3.125 -0.578125 2.984375 -0.578125 L 2 -0.578125 L 2 -1.640625 C 2 -2.546875 2.59375 -3.3125 3.5625 -3.3125 C 3.59375 -2.984375 3.84375 -2.921875 3.953125 -2.921875 C 4.15625 -2.921875 4.34375 -3.0625 4.34375 -3.3125 Z M 4.34375 -3.3125 "/>
</g>
<g id="glyph-0-17">
<path d="M 2.90625 -0.5625 C 2.90625 -0.890625 2.625 -1.140625 2.34375 -1.140625 C 2.015625 -1.140625 1.78125 -0.859375 1.78125 -0.578125 C 1.78125 -0.234375 2.046875 0 2.34375 0 C 2.671875 0 2.90625 -0.28125 2.90625 -0.5625 Z M 2.90625 -0.5625 "/>
</g>
<g id="glyph-0-18">
<path d="M 4.40625 -0.28125 C 4.40625 -0.578125 4.171875 -0.578125 4.03125 -0.578125 L 3.671875 -0.578125 L 2.578125 -1.984375 L 3.546875 -3.265625 L 3.90625 -3.265625 C 4.046875 -3.265625 4.28125 -3.265625 4.28125 -3.546875 C 4.28125 -3.84375 4.046875 -3.84375 3.90625 -3.84375 L 2.84375 -3.84375 C 2.71875 -3.84375 2.46875 -3.84375 2.46875 -3.5625 C 2.46875 -3.265625 2.6875 -3.265625 2.90625 -3.265625 L 2.3125 -2.4375 L 1.6875 -3.265625 C 1.90625 -3.265625 2.125 -3.265625 2.125 -3.5625 C 2.125 -3.84375 1.875 -3.84375 1.75 -3.84375 L 0.6875 -3.84375 C 0.546875 -3.84375 0.3125 -3.84375 0.3125 -3.5625 C 0.3125 -3.265625 0.546875 -3.265625 0.6875 -3.265625 L 1.046875 -3.265625 L 2.046875 -1.984375 L 0.984375 -0.578125 L 0.640625 -0.578125 C 0.484375 -0.578125 0.265625 -0.578125 0.265625 -0.28125 C 0.265625 0 0.5 0 0.640625 0 L 1.6875 0 C 1.828125 0 2.0625 0 2.0625 -0.28125 C 2.0625 -0.578125 1.859375 -0.578125 1.609375 -0.578125 L 2.3125 -1.609375 L 3.046875 -0.578125 C 2.8125 -0.578125 2.59375 -0.578125 2.59375 -0.28125 C 2.59375 0 2.84375 0 2.96875 0 L 4.03125 0 C 4.171875 0 4.40625 0 4.40625 -0.28125 Z M 4.40625 -0.28125 "/>
</g>
<g id="glyph-0-19">
<path d="M 4.375 -1.921875 C 4.375 -2.984375 3.609375 -3.890625 2.609375 -3.890625 C 2.1875 -3.890625 1.8125 -3.734375 1.5 -3.484375 C 1.5 -3.796875 1.390625 -3.84375 1.125 -3.84375 L 0.453125 -3.84375 C 0.328125 -3.84375 0.078125 -3.84375 0.078125 -3.5625 C 0.078125 -3.265625 0.3125 -3.265625 0.453125 -3.265625 L 0.84375 -3.265625 L 0.84375 1.40625 L 0.453125 1.40625 C 0.328125 1.40625 0.078125 1.40625 0.078125 1.6875 C 0.078125 1.984375 0.3125 1.984375 0.453125 1.984375 L 1.890625 1.984375 C 2.015625 1.984375 2.265625 1.984375 2.265625 1.6875 C 2.265625 1.40625 2.03125 1.40625 1.890625 1.40625 L 1.5 1.40625 L 1.5 -0.390625 C 1.78125 -0.109375 2.125 0.046875 2.515625 0.046875 C 3.5 0.046875 4.375 -0.796875 4.375 -1.921875 Z M 3.71875 -1.921875 C 3.71875 -1.140625 3.125 -0.53125 2.484375 -0.53125 C 1.84375 -0.53125 1.5 -1.265625 1.5 -1.71875 L 1.5 -2.34375 C 1.5 -2.875 2.03125 -3.3125 2.5625 -3.3125 C 3.1875 -3.3125 3.71875 -2.703125 3.71875 -1.921875 Z M 3.71875 -1.921875 "/>
</g>
<g id="glyph-0-20">
<path d="M 4.171875 1.015625 C 4.171875 0.671875 3.84375 0.671875 3.734375 0.671875 L 0.9375 0.671875 C 0.84375 0.671875 0.5 0.671875 0.5 1 C 0.5 1.34375 0.828125 1.34375 0.9375 1.34375 L 3.734375 1.34375 C 3.84375 1.34375 4.171875 1.34375 4.171875 1.015625 Z M 4.171875 1.015625 "/>
</g>
<g id="glyph-1-0">
<path d="M 2.640625 -0.53125 C 2.640625 -0.84375 2.390625 -1.0625 2.109375 -1.0625 C 1.796875 -1.0625 1.5625 -0.8125 1.5625 -0.53125 C 1.5625 -0.21875 1.828125 0 2.09375 0 C 2.421875 0 2.640625 -0.25 2.640625 -0.53125 Z M 2.640625 -0.53125 "/>
</g>
<g id="glyph-1-1">
<path d="M 3.578125 -0.265625 C 3.578125 -0.515625 3.328125 -0.515625 3.21875 -0.515625 L 2.40625 -0.515625 L 2.40625 -4.3125 L 3.21875 -4.3125 C 3.34375 -4.3125 3.578125 -4.3125 3.578125 -4.578125 C 3.578125 -4.84375 3.328125 -4.84375 3.21875 -4.84375 L 0.96875 -4.84375 C 0.859375 -4.84375 0.625 -4.84375 0.625 -4.578125 C 0.625 -4.3125 0.859375 -4.3125 0.96875 -4.3125 L 1.796875 -4.3125 L 1.796875 -0.515625 L 0.96875 -0.515625 C 0.859375 -0.515625 0.625 -0.515625 0.625 -0.265625 C 0.625 0 0.859375 0 0.96875 0 L 3.21875 0 C 3.34375 0 3.578125 0 3.578125 -0.265625 Z M 3.578125 -0.265625 "/>
</g>
<g id="glyph-1-2">
<path d="M 4.125 -0.265625 C 4.125 -0.515625 3.9375 -0.515625 3.6875 -0.515625 L 3.6875 -2.390625 C 3.6875 -2.5625 3.6875 -3.453125 2.96875 -3.453125 C 2.703125 -3.453125 2.390625 -3.328125 2.171875 -3.0625 C 2.03125 -3.34375 1.8125 -3.453125 1.578125 -3.453125 C 1.40625 -3.453125 1.15625 -3.40625 0.90625 -3.1875 C 0.859375 -3.421875 0.671875 -3.421875 0.546875 -3.421875 L 0.296875 -3.421875 C 0.1875 -3.421875 -0.046875 -3.421875 -0.046875 -3.15625 C -0.046875 -2.890625 0.15625 -2.890625 0.40625 -2.890625 L 0.40625 -0.515625 C 0.15625 -0.515625 -0.046875 -0.515625 -0.046875 -0.265625 C -0.046875 0 0.1875 0 0.296875 0 L 1 0 C 1.109375 0 1.34375 0 1.34375 -0.265625 C 1.34375 -0.515625 1.15625 -0.515625 0.890625 -0.515625 L 0.890625 -1.90625 C 0.890625 -2.5625 1.234375 -2.9375 1.546875 -2.9375 C 1.71875 -2.9375 1.796875 -2.75 1.796875 -2.34375 L 1.796875 -0.515625 C 1.71875 -0.515625 1.484375 -0.515625 1.484375 -0.265625 C 1.484375 0 1.71875 0 1.828125 0 L 2.390625 0 C 2.515625 0 2.734375 0 2.734375 -0.265625 C 2.734375 -0.515625 2.546875 -0.515625 2.296875 -0.515625 L 2.296875 -1.90625 C 2.296875 -2.5625 2.625 -2.9375 2.953125 -2.9375 C 3.109375 -2.9375 3.1875 -2.75 3.1875 -2.34375 L 3.1875 -0.515625 C 3.109375 -0.515625 2.890625 -0.515625 2.890625 -0.265625 C 2.890625 0 3.109375 0 3.21875 0 L 3.78125 0 C 3.90625 0 4.125 0 4.125 -0.265625 Z M 4.125 -0.265625 "/>
</g>
<g id="glyph-1-3">
<path d="M 4.15625 -0.265625 C 4.15625 -0.515625 3.9375 -0.515625 3.828125 -0.515625 C 3.53125 -0.515625 3.453125 -0.546875 3.375 -0.578125 L 3.375 -2.234375 C 3.375 -2.890625 2.859375 -3.484375 1.78125 -3.484375 C 1.40625 -3.484375 0.59375 -3.484375 0.59375 -2.875 C 0.59375 -2.65625 0.734375 -2.484375 0.96875 -2.484375 C 1.125 -2.484375 1.34375 -2.578125 1.359375 -2.859375 C 1.359375 -2.921875 1.359375 -2.9375 1.46875 -2.953125 C 1.546875 -2.953125 1.6875 -2.953125 1.78125 -2.953125 C 2.4375 -2.953125 2.765625 -2.65625 2.765625 -2.21875 C 1.921875 -2.21875 0.375 -2.03125 0.375 -1.046875 C 0.375 -0.46875 0.921875 0.046875 1.734375 0.046875 C 2.359375 0.046875 2.75 -0.203125 2.859375 -0.265625 C 3.03125 -0.03125 3.359375 0 3.734375 0 C 3.953125 0 4.15625 0 4.15625 -0.265625 Z M 2.765625 -1.140625 C 2.765625 -0.96875 2.765625 -0.78125 2.46875 -0.640625 C 2.1875 -0.484375 1.875 -0.484375 1.78125 -0.484375 C 1.3125 -0.484375 0.984375 -0.765625 0.984375 -1.046875 C 0.984375 -1.46875 1.859375 -1.71875 2.765625 -1.71875 Z M 2.765625 -1.140625 "/>
</g>
<g id="glyph-1-4">
<path d="M 4.078125 -3.03125 C 4.078125 -3.265625 3.875 -3.5 3.484375 -3.5 C 3.265625 -3.5 2.921875 -3.4375 2.640625 -3.21875 C 2.578125 -3.265625 2.28125 -3.453125 1.875 -3.453125 C 1.09375 -3.453125 0.515625 -2.875 0.515625 -2.171875 C 0.515625 -1.921875 0.609375 -1.640625 0.765625 -1.4375 C 0.703125 -1.34375 0.609375 -1.125 0.609375 -0.90625 C 0.609375 -0.671875 0.703125 -0.453125 0.796875 -0.328125 C 0.46875 -0.140625 0.234375 0.25 0.234375 0.640625 C 0.234375 1.328125 1.09375 1.8125 2.09375 1.8125 C 3.109375 1.8125 3.96875 1.328125 3.96875 0.640625 C 3.96875 -0.0625 3.359375 -0.46875 2.515625 -0.5 C 2.28125 -0.5 1.6875 -0.484375 1.453125 -0.515625 C 1.109375 -0.515625 1.109375 -0.90625 1.109375 -0.90625 C 1.109375 -1 1.140625 -1.046875 1.15625 -1.09375 C 1.28125 -1.015625 1.546875 -0.90625 1.859375 -0.90625 C 2.625 -0.90625 3.21875 -1.484375 3.21875 -2.171875 C 3.21875 -2.453125 3.109375 -2.703125 3.015625 -2.859375 C 3.171875 -2.9375 3.265625 -2.953125 3.40625 -2.96875 C 3.453125 -2.765625 3.59375 -2.6875 3.734375 -2.6875 C 3.921875 -2.6875 4.078125 -2.84375 4.078125 -3.03125 Z M 2.609375 -2.171875 C 2.609375 -1.765625 2.28125 -1.421875 1.859375 -1.421875 C 1.46875 -1.421875 1.109375 -1.75 1.109375 -2.171875 C 1.109375 -2.609375 1.46875 -2.9375 1.859375 -2.9375 C 2.28125 -2.9375 2.609375 -2.59375 2.609375 -2.171875 Z M 3.46875 0.640625 C 3.46875 0.953125 2.890625 1.296875 2.09375 1.296875 C 1.296875 1.296875 0.734375 0.953125 0.734375 0.640625 C 0.734375 0.328125 1.015625 0 1.4375 -0.015625 L 1.875 -0.015625 C 2.578125 -0.015625 3.46875 -0.015625 3.46875 0.640625 Z M 3.46875 0.640625 "/>
</g>
<g id="glyph-1-5">
<path d="M 3.71875 -0.859375 C 3.71875 -1.03125 3.59375 -1.09375 3.421875 -1.09375 C 3.28125 -1.09375 3.203125 -1.09375 3.125 -0.921875 C 2.96875 -0.5625 2.578125 -0.484375 2.328125 -0.484375 C 1.75 -0.484375 1.171875 -0.859375 1.046875 -1.484375 L 3.375 -1.484375 C 3.53125 -1.484375 3.71875 -1.484375 3.71875 -1.796875 C 3.71875 -2.734375 3.1875 -3.484375 2.15625 -3.484375 C 1.1875 -3.484375 0.421875 -2.6875 0.421875 -1.71875 C 0.421875 -0.78125 1.21875 0.046875 2.296875 0.046875 C 3.375 0.046875 3.71875 -0.65625 3.71875 -0.859375 Z M 3.109375 -2 L 1.046875 -2 C 1.171875 -2.5625 1.640625 -2.953125 2.15625 -2.953125 C 2.875 -2.953125 3.0625 -2.40625 3.109375 -2 Z M 3.109375 -2 "/>
</g>
<g id="glyph-1-6">
<path d="M 3.671875 -1 C 3.671875 -1.1875 3.609375 -1.46875 3.296875 -1.703125 C 2.984375 -1.9375 2.671875 -1.984375 2.125 -2.078125 C 1.578125 -2.171875 1.09375 -2.25 1.09375 -2.53125 C 1.09375 -2.6875 1.296875 -2.953125 2.078125 -2.953125 C 2.796875 -2.953125 2.8125 -2.703125 2.828125 -2.5625 C 2.84375 -2.3125 3.046875 -2.3125 3.125 -2.3125 C 3.4375 -2.3125 3.4375 -2.5 3.4375 -2.640625 L 3.4375 -3.140625 C 3.4375 -3.25 3.4375 -3.484375 3.171875 -3.484375 C 2.984375 -3.484375 2.953125 -3.375 2.921875 -3.328125 C 2.59375 -3.484375 2.28125 -3.484375 2.09375 -3.484375 C 0.75 -3.484375 0.578125 -2.8125 0.578125 -2.53125 C 0.578125 -1.796875 1.40625 -1.671875 2.109375 -1.5625 C 2.53125 -1.484375 3.140625 -1.390625 3.140625 -1 C 3.140625 -0.71875 2.84375 -0.484375 2.15625 -0.484375 C 1.65625 -0.484375 1.34375 -0.65625 1.1875 -1.125 C 1.140625 -1.25 1.109375 -1.34375 0.875 -1.34375 C 0.578125 -1.34375 0.578125 -1.15625 0.578125 -1 L 0.578125 -0.296875 C 0.578125 -0.1875 0.578125 0.046875 0.84375 0.046875 C 0.921875 0.046875 1.0625 0.015625 1.140625 -0.21875 C 1.546875 0.046875 1.984375 0.046875 2.140625 0.046875 C 3.5 0.046875 3.671875 -0.703125 3.671875 -1 Z M 3.671875 -1 "/>
</g>
<g id="glyph-2-0">
<path d="M 4.125 -2.921875 C 4.125 -3.421875 3.890625 -3.5 3.765625 -3.5 C 3.609375 -3.5 3.375 -3.328125 3.375 -3.109375 C 3.375 -3 3.4375 -2.953125 3.484375 -2.90625 C 3.640625 -2.734375 3.703125 -2.515625 3.703125 -2.296875 C 3.703125 -2 3.28125 -0.140625 2.390625 -0.140625 C 1.84375 -0.140625 1.84375 -0.6875 1.84375 -0.8125 C 1.84375 -1.15625 1.953125 -1.5625 2.21875 -2.265625 C 2.296875 -2.453125 2.375 -2.671875 2.375 -2.84375 C 2.375 -3.265625 2.046875 -3.5 1.71875 -3.5 C 0.953125 -3.5 0.640625 -2.390625 0.640625 -2.28125 C 0.640625 -2.171875 0.734375 -2.171875 0.78125 -2.171875 C 0.90625 -2.171875 0.921875 -2.203125 0.953125 -2.34375 C 1.09375 -2.84375 1.359375 -3.265625 1.703125 -3.265625 C 1.84375 -3.265625 1.875 -3.171875 1.875 -3.03125 C 1.875 -2.84375 1.8125 -2.671875 1.75 -2.5 C 1.5 -1.84375 1.3125 -1.3125 1.3125 -0.90625 C 1.3125 -0.140625 1.890625 0.078125 2.375 0.078125 C 3.6875 0.078125 4.125 -2.515625 4.125 -2.921875 Z M 4.125 -2.921875 "/>
</g>
<g id="glyph-2-1">
<path d="M 4.28125 -2.15625 C 4.28125 -2.984375 3.71875 -3.5 3.015625 -3.5 C 1.984375 -3.5 0.90625 -2.421875 0.90625 -1.265625 C 0.90625 -0.390625 1.5 0.078125 2.171875 0.078125 C 3.21875 0.078125 4.28125 -1.015625 4.28125 -2.15625 Z M 3.6875 -2.4375 C 3.6875 -2.171875 3.5625 -1.40625 3.234375 -0.875 C 2.984375 -0.4375 2.5625 -0.140625 2.171875 -0.140625 C 1.875 -0.140625 1.5 -0.34375 1.5 -0.984375 C 1.5 -1.34375 1.671875 -2.078125 1.921875 -2.515625 C 2.265625 -3.09375 2.734375 -3.265625 3 -3.265625 C 3.375 -3.265625 3.6875 -2.984375 3.6875 -2.4375 Z M 3.6875 -2.4375 "/>
</g>
<g id="glyph-2-2">
<path d="M 4.765625 -1.140625 C 4.765625 -1.234375 4.65625 -1.234375 4.625 -1.234375 C 4.484375 -1.234375 4.484375 -1.21875 4.4375 -1.015625 C 4.28125 -0.40625 4.125 -0.140625 3.90625 -0.140625 C 3.6875 -0.140625 3.6875 -0.390625 3.6875 -0.484375 C 3.6875 -0.546875 3.6875 -0.625 3.703125 -0.71875 L 4.28125 -3.03125 C 4.3125 -3.140625 4.3125 -3.15625 4.3125 -3.1875 C 4.3125 -3.328125 4.203125 -3.421875 4.078125 -3.421875 C 3.8125 -3.421875 3.75 -3.171875 3.734375 -3.09375 L 3.203125 -0.921875 C 3.15625 -0.765625 2.828125 -0.140625 2.296875 -0.140625 C 1.828125 -0.140625 1.828125 -0.625 1.828125 -0.765625 C 1.828125 -1.203125 2.03125 -1.75 2.28125 -2.4375 C 2.34375 -2.59375 2.375 -2.671875 2.375 -2.84375 C 2.375 -3.265625 2.046875 -3.5 1.71875 -3.5 C 0.953125 -3.5 0.640625 -2.390625 0.640625 -2.28125 C 0.640625 -2.171875 0.734375 -2.171875 0.78125 -2.171875 C 0.90625 -2.171875 0.921875 -2.203125 0.953125 -2.34375 C 1.09375 -2.84375 1.359375 -3.265625 1.703125 -3.265625 C 1.84375 -3.265625 1.875 -3.171875 1.875 -3.03125 C 1.875 -2.84375 1.8125 -2.671875 1.75 -2.5 C 1.515625 -1.890625 1.296875 -1.3125 1.296875 -0.875 C 1.296875 -0.15625 1.8125 0.078125 2.265625 0.078125 C 2.453125 0.078125 2.796875 0.0625 3.203125 -0.40625 C 3.3125 -0.015625 3.6875 0.078125 3.890625 0.078125 C 4.171875 0.078125 4.359375 -0.09375 4.5 -0.34375 C 4.671875 -0.65625 4.765625 -1.140625 4.765625 -1.140625 Z M 4.765625 -1.140625 "/>
</g>
<g id="glyph-2-3">
<path d="M 3.3125 -1.234375 C 3.3125 -1.9375 2.625 -2.078125 2.359375 -2.140625 C 2.015625 -2.203125 1.75 -2.265625 1.75 -2.59375 C 1.75 -2.8125 1.9375 -3.265625 2.5625 -3.265625 C 2.8125 -3.265625 3.078125 -3.1875 3.171875 -2.9375 C 2.90625 -2.875 2.90625 -2.609375 2.90625 -2.609375 C 2.90625 -2.46875 3.015625 -2.375 3.140625 -2.375 C 3.171875 -2.375 3.5 -2.375 3.5 -2.8125 C 3.5 -3.28125 3.03125 -3.5 2.578125 -3.5 C 1.5 -3.5 1.25 -2.625 1.25 -2.328125 C 1.25 -2.125 1.34375 -1.90625 1.5 -1.765625 C 1.671875 -1.609375 1.765625 -1.59375 2.234375 -1.5 C 2.40625 -1.46875 2.828125 -1.375 2.828125 -0.96875 C 2.828125 -0.734375 2.625 -0.140625 1.75 -0.140625 C 1.578125 -0.140625 1.109375 -0.171875 0.953125 -0.53125 C 1.3125 -0.59375 1.3125 -0.890625 1.3125 -0.921875 C 1.3125 -1.0625 1.203125 -1.1875 1.03125 -1.1875 C 0.8125 -1.1875 0.625 -1.015625 0.625 -0.6875 C 0.625 -0.25 1.046875 0.078125 1.75 0.078125 C 3 0.078125 3.3125 -0.859375 3.3125 -1.234375 Z M 3.3125 -1.234375 "/>
</g>
<g id="glyph-2-4">
<path d="M 3.984375 -0.796875 C 3.984375 -0.859375 3.875 -0.953125 3.8125 -0.953125 C 3.765625 -0.953125 3.765625 -0.9375 3.6875 -0.859375 C 3.265625 -0.34375 2.640625 -0.140625 2.203125 -0.140625 C 1.65625 -0.140625 1.53125 -0.6875 1.53125 -1.046875 C 1.53125 -1.234375 1.578125 -1.5625 1.640625 -1.8125 L 2.09375 -1.8125 C 2.40625 -1.8125 3.890625 -1.8125 3.890625 -2.796875 C 3.890625 -3.203125 3.546875 -3.5 3 -3.5 C 2.140625 -3.5 0.9375 -2.75 0.9375 -1.34375 C 0.9375 -0.625 1.359375 0.078125 2.1875 0.078125 C 3.328125 0.078125 3.984375 -0.6875 3.984375 -0.796875 Z M 3.546875 -2.796875 C 3.546875 -2.03125 2.328125 -2.03125 2.03125 -2.03125 L 1.703125 -2.03125 C 1.96875 -3.015625 2.65625 -3.265625 3 -3.265625 C 3.28125 -3.265625 3.546875 -3.125 3.546875 -2.796875 Z M 4.109375 -4.234375 L 3.359375 -5.375 C 3.328125 -5.40625 3.28125 -5.40625 3.234375 -5.375 L 1.921875 -4.234375 C 1.84375 -4.15625 1.921875 -4.046875 2.015625 -4.109375 L 3.1875 -4.890625 L 3.96875 -4.109375 C 4.03125 -4.046875 4.171875 -4.15625 4.109375 -4.234375 Z M 4.109375 -4.234375 "/>
</g>
<g id="glyph-2-5">
<path d="M 3.03125 -1.140625 C 3.03125 -1.234375 2.921875 -1.234375 2.890625 -1.234375 C 2.765625 -1.234375 2.75 -1.21875 2.71875 -1.109375 C 2.375 -0.296875 2 -0.140625 1.75 -0.140625 C 1.546875 -0.140625 1.515625 -0.3125 1.515625 -0.484375 C 1.515625 -0.546875 1.515625 -0.625 1.546875 -0.71875 L 2.140625 -3.15625 L 2.875 -3.15625 C 3 -3.15625 3.09375 -3.15625 3.09375 -3.296875 C 3.09375 -3.421875 3 -3.421875 2.875 -3.421875 L 2.203125 -3.421875 L 2.5 -4.5625 C 2.53125 -4.671875 2.53125 -4.6875 2.53125 -4.734375 C 2.53125 -4.90625 2.375 -4.953125 2.296875 -4.953125 C 2.046875 -4.953125 1.984375 -4.71875 1.96875 -4.640625 L 1.65625 -3.421875 L 0.9375 -3.421875 C 0.796875 -3.421875 0.703125 -3.421875 0.703125 -3.265625 C 0.703125 -3.15625 0.8125 -3.15625 0.921875 -3.15625 L 1.59375 -3.15625 L 1.03125 -0.9375 C 1 -0.78125 1 -0.734375 1 -0.65625 C 1 -0.1875 1.34375 0.078125 1.734375 0.078125 C 2.5625 0.078125 3.03125 -1.03125 3.03125 -1.140625 Z M 3.03125 -1.140625 "/>
</g>
<g id="glyph-2-6">
<path d="M 3.984375 -0.796875 C 3.984375 -0.859375 3.875 -0.953125 3.8125 -0.953125 C 3.765625 -0.953125 3.765625 -0.9375 3.6875 -0.859375 C 3.265625 -0.34375 2.640625 -0.140625 2.203125 -0.140625 C 1.65625 -0.140625 1.53125 -0.6875 1.53125 -1.046875 C 1.53125 -1.234375 1.578125 -1.5625 1.640625 -1.8125 L 2.09375 -1.8125 C 2.40625 -1.8125 3.890625 -1.8125 3.890625 -2.796875 C 3.890625 -3.203125 3.546875 -3.5 3 -3.5 C 2.140625 -3.5 0.9375 -2.75 0.9375 -1.34375 C 0.9375 -0.625 1.359375 0.078125 2.1875 0.078125 C 3.328125 0.078125 3.984375 -0.6875 3.984375 -0.796875 Z M 3.546875 -2.796875 C 3.546875 -2.03125 2.328125 -2.03125 2.03125 -2.03125 L 1.703125 -2.03125 C 1.96875 -3.015625 2.65625 -3.265625 3 -3.265625 C 3.28125 -3.265625 3.546875 -3.125 3.546875 -2.796875 Z M 3.546875 -2.796875 "/>
</g>
<g id="glyph-2-7">
<path d="M 2.8125 -1.140625 C 2.8125 -1.234375 2.703125 -1.234375 2.65625 -1.234375 C 2.53125 -1.234375 2.53125 -1.203125 2.484375 -1.0625 C 2.34375 -0.546875 2.078125 -0.140625 1.75 -0.140625 C 1.59375 -0.140625 1.578125 -0.25 1.578125 -0.390625 C 1.578125 -0.578125 1.625 -0.71875 1.75 -1.046875 L 2.28125 -2.421875 C 2.34375 -2.59375 2.375 -2.671875 2.375 -2.84375 C 2.375 -3.265625 2.046875 -3.5 1.71875 -3.5 C 0.953125 -3.5 0.640625 -2.390625 0.640625 -2.28125 C 0.640625 -2.171875 0.734375 -2.171875 0.78125 -2.171875 C 0.90625 -2.171875 0.921875 -2.203125 0.953125 -2.34375 C 1.0625 -2.75 1.3125 -3.265625 1.6875 -3.265625 C 1.84375 -3.265625 1.875 -3.171875 1.875 -3.03125 C 1.875 -2.84375 1.8125 -2.6875 1.71875 -2.421875 L 1.15625 -0.9375 C 1.125 -0.859375 1.0625 -0.71875 1.0625 -0.578125 C 1.0625 -0.21875 1.328125 0.078125 1.734375 0.078125 C 2.484375 0.078125 2.8125 -1.03125 2.8125 -1.140625 Z M 2.9375 -4.8125 C 2.9375 -5.09375 2.71875 -5.1875 2.578125 -5.1875 C 2.3125 -5.1875 2.046875 -4.9375 2.046875 -4.671875 C 2.046875 -4.421875 2.21875 -4.296875 2.40625 -4.296875 C 2.671875 -4.296875 2.9375 -4.53125 2.9375 -4.8125 Z M 2.9375 -4.8125 "/>
</g>
<g id="glyph-2-8">
<path d="M 3.984375 -0.796875 C 3.984375 -0.859375 3.875 -0.953125 3.8125 -0.953125 C 3.765625 -0.953125 3.765625 -0.9375 3.6875 -0.859375 C 3.265625 -0.34375 2.640625 -0.140625 2.203125 -0.140625 C 1.78125 -0.140625 1.5 -0.4375 1.5 -0.984375 C 1.5 -1.375 1.6875 -2.078125 1.890625 -2.453125 C 2.25 -3.109375 2.734375 -3.265625 3.015625 -3.265625 C 3.109375 -3.265625 3.453125 -3.25 3.59375 -2.984375 C 3.25 -2.921875 3.25 -2.625 3.25 -2.59375 C 3.25 -2.46875 3.328125 -2.34375 3.53125 -2.34375 C 3.734375 -2.34375 3.9375 -2.5 3.9375 -2.8125 C 3.9375 -3.203125 3.5625 -3.5 3.015625 -3.5 C 1.984375 -3.5 0.90625 -2.421875 0.90625 -1.265625 C 0.90625 -0.453125 1.4375 0.078125 2.1875 0.078125 C 3.328125 0.078125 3.984375 -0.6875 3.984375 -0.796875 Z M 3.984375 -0.796875 "/>
</g>
</g>
<clipPath id="clip-0">
<path clip-rule="nonzero" d="M 158 73 L 190 73 L 190 118.765625 L 158 118.765625 Z M 158 73 "/>
</clipPath>
<clipPath id="clip-1">
<path clip-rule="nonzero" d="M 163 94 L 189 94 L 189 118.765625 L 163 118.765625 Z M 163 94 "/>
</clipPath>
</defs>
<path fill-rule="nonzero" fill="rgb(100%, 100%, 100%)" fill-opacity="1" stroke-width="0.3985" stroke-linecap="butt" stroke-linejoin="miter" stroke="rgb(39.99939%, 39.99939%, 39.99939%)" stroke-opacity="1" stroke-miterlimit="10" d="M 94.060861 5.477679 L 87.358319 5.477679 C 86.808608 5.477679 86.364913 5.030057 86.364913 4.480347 L 86.364913 -4.479936 C 86.364913 -5.033573 86.808608 -5.477268 87.358319 -5.477268 L 94.060861 -5.477268 C 94.610572 -5.477268 95.054267 -5.033573 95.054267 -4.479936 L 95.054267 4.480347 C 95.054267 5.030057 94.610572 5.477679 94.060861 5.477679 Z M 94.060861 5.477679 " transform="matrix(0.994842, 0, 0, -0.994842, 65.689961, 8.621298)"/>
<g fill="rgb(0%, 0%, 0%)" fill-opacity="1">
<use xlink:href="#glyph-0-0" x="153.589196" y="11.348159"/>
</g>
<path fill-rule="nonzero" fill="rgb(100%, 100%, 100%)" fill-opacity="1" stroke-width="0.3985" stroke-linecap="butt" stroke-linejoin="miter" stroke="rgb(39.99939%, 39.99939%, 39.99939%)" stroke-opacity="1" stroke-miterlimit="10" d="M 61.435538 -20.8299 L 40.613286 -20.8299 C 40.063575 -20.8299 39.615954 -21.273595 39.615954 -21.827232 L 39.615954 -29.19728 C 39.615954 -29.746991 40.063575 -30.194612 40.613286 -30.194612 L 61.435538 -30.194612 C 61.985248 -30.194612 62.43287 -29.746991 62.43287 -29.19728 L 62.43287 -21.827232 C 62.43287 -21.273595 61.985248 -20.8299 61.435538 -20.8299 Z M 61.435538 -20.8299 " transform="matrix(0.994842, 0, 0, -0.994842, 65.689961, 8.621298)"/>
<g fill="rgb(0%, 0%, 0%)" fill-opacity="1">
<use xlink:href="#glyph-0-1" x="107.084328" y="36.677823"/>
<use xlink:href="#glyph-0-2" x="111.767406" y="36.677823"/>
<use xlink:href="#glyph-0-3" x="116.450484" y="36.677823"/>
<use xlink:href="#glyph-0-4" x="121.133561" y="36.677823"/>
</g>
<path fill-rule="nonzero" fill="rgb(100%, 100%, 100%)" fill-opacity="1" stroke-width="0.3985" stroke-linecap="butt" stroke-linejoin="miter" stroke="rgb(39.99939%, 39.99939%, 39.99939%)" stroke-opacity="1" stroke-miterlimit="10" d="M 155.459608 -20.994813 L 139.345234 -20.994813 C 138.795524 -20.994813 138.347902 -21.438508 138.347902 -21.988218 L 138.347902 -29.036293 C 138.347902 -29.586004 138.795524 -30.029699 139.345234 -30.029699 L 155.459608 -30.029699 C 156.009318 -30.029699 156.45694 -29.586004 156.45694 -29.036293 L 156.45694 -21.988218 C 156.45694 -21.438508 156.009318 -20.994813 155.459608 -20.994813 Z M 155.459608 -20.994813 " transform="matrix(0.994842, 0, 0, -0.994842, 65.689961, 8.621298)"/>
<g fill="rgb(0%, 0%, 0%)" fill-opacity="1">
<use xlink:href="#glyph-0-4" x="205.30604" y="36.514669"/>
<use xlink:href="#glyph-0-5" x="209.989118" y="36.514669"/>
<use xlink:href="#glyph-0-6" x="214.672196" y="36.514669"/>
</g>
<path fill-rule="nonzero" fill="rgb(100%, 100%, 100%)" fill-opacity="1" stroke-width="0.3985" stroke-linecap="butt" stroke-linejoin="miter" stroke="rgb(39.99939%, 39.99939%, 39.99939%)" stroke-opacity="1" stroke-miterlimit="10" d="M 63.787514 -46.340398 L 38.26131 -46.340398 C 37.707673 -46.340398 37.263978 -46.788019 37.263978 -47.33773 L 37.263978 -54.711705 C 37.263978 -55.261415 37.707673 -55.70511 38.26131 -55.70511 L 63.787514 -55.70511 C 64.341151 -55.70511 64.784846 -55.261415 64.784846 -54.711705 L 64.784846 -47.33773 C 64.784846 -46.788019 64.341151 -46.340398 63.787514 -46.340398 Z M 63.787514 -46.340398 " transform="matrix(0.994842, 0, 0, -0.994842, 65.689961, 8.621298)"/>
<g fill="rgb(0%, 0%, 0%)" fill-opacity="1">
<use xlink:href="#glyph-0-4" x="104.742471" y="62.058223"/>
<use xlink:href="#glyph-0-7" x="109.425548" y="62.058223"/>
<use xlink:href="#glyph-0-4" x="114.108626" y="62.058223"/>
<use xlink:href="#glyph-0-8" x="118.791704" y="62.058223"/>
<use xlink:href="#glyph-0-4" x="123.474782" y="62.058223"/>
</g>
<g fill="rgb(0%, 0%, 0%)" fill-opacity="1">
<use xlink:href="#glyph-0-1" x="200.623321" y="62.058223"/>
<use xlink:href="#glyph-0-2" x="205.306399" y="62.058223"/>
<use xlink:href="#glyph-0-9" x="209.989476" y="62.058223"/>
<use xlink:href="#glyph-0-5" x="214.672554" y="62.058223"/>
<use xlink:href="#glyph-0-9" x="219.355632" y="62.058223"/>
</g>
<path fill-rule="nonzero" fill="rgb(100%, 89.99939%, 79.998779%)" fill-opacity="1" stroke-width="0.3985" stroke-linecap="butt" stroke-linejoin="miter" stroke="rgb(39.99939%, 39.99939%, 39.99939%)" stroke-opacity="1" stroke-miterlimit="10" d="M 36.353029 -71.854822 L -8.004689 -71.854822 C -8.558326 -71.854822 -9.002021 -72.298517 -9.002021 -72.848228 L -9.002021 -80.222202 C -9.002021 -80.771913 -8.558326 -81.219535 -8.004689 -81.219535 L 36.353029 -81.219535 C 36.902739 -81.219535 37.350361 -80.771913 37.350361 -80.222202 L 37.350361 -72.848228 C 37.350361 -72.298517 36.902739 -71.854822 36.353029 -71.854822 Z M 36.353029 -71.854822 " transform="matrix(0.994842, 0, 0, -0.994842, 65.689961, 8.621298)"/>
<g fill="rgb(0%, 0%, 0%)" fill-opacity="1">
<use xlink:href="#glyph-0-10" x="58.716121" y="87.437629"/>
<use xlink:href="#glyph-0-2" x="63.399199" y="87.437629"/>
<use xlink:href="#glyph-0-6" x="68.082277" y="87.437629"/>
<use xlink:href="#glyph-0-11" x="72.765354" y="87.437629"/>
<use xlink:href="#glyph-0-3" x="77.448432" y="87.437629"/>
<use xlink:href="#glyph-0-4" x="82.13151" y="87.437629"/>
<use xlink:href="#glyph-0-12" x="86.814588" y="87.437629"/>
<use xlink:href="#glyph-0-5" x="91.497666" y="87.437629"/>
<use xlink:href="#glyph-0-9" x="96.180744" y="87.437629"/>
</g>
<path fill-rule="nonzero" fill="rgb(100%, 100%, 100%)" fill-opacity="1" stroke-width="0.3985" stroke-linecap="butt" stroke-linejoin="miter" stroke="rgb(39.99939%, 39.99939%, 39.99939%)" stroke-opacity="1" stroke-miterlimit="10" d="M 102.993658 -70.85749 L 72.755649 -70.85749 C 72.205939 -70.85749 71.762244 -71.305111 71.762244 -71.854822 L 71.762244 -81.219535 C 71.762244 -81.769245 72.205939 -82.216867 72.755649 -82.216867 L 102.993658 -82.216867 C 103.543369 -82.216867 103.990991 -81.769245 103.990991 -81.219535 L 103.990991 -71.854822 C 103.990991 -71.305111 103.543369 -70.85749 102.993658 -70.85749 Z M 102.993658 -70.85749 " transform="matrix(0.994842, 0, 0, -0.994842, 65.689961, 8.621298)"/>
<g fill="rgb(0%, 0%, 0%)" fill-opacity="1">
<use xlink:href="#glyph-0-13" x="139.061524" y="86.446767"/>
<use xlink:href="#glyph-0-3" x="143.744601" y="86.446767"/>
<use xlink:href="#glyph-0-14" x="148.427679" y="86.446767"/>
<use xlink:href="#glyph-0-15" x="153.110757" y="86.446767"/>
<use xlink:href="#glyph-0-4" x="157.793835" y="86.446767"/>
<use xlink:href="#glyph-0-9" x="162.476913" y="86.446767"/>
</g>
<g fill="rgb(0%, 0%, 0%)" fill-opacity="1">
<use xlink:href="#glyph-0-6" x="31.92603" y="112.65587"/>
<use xlink:href="#glyph-0-2" x="36.609107" y="112.65587"/>
<use xlink:href="#glyph-0-11" x="41.292185" y="112.65587"/>
<use xlink:href="#glyph-0-16" x="45.975263" y="112.65587"/>
<use xlink:href="#glyph-0-9" x="50.658341" y="112.65587"/>
<use xlink:href="#glyph-0-17" x="55.341419" y="112.65587"/>
<use xlink:href="#glyph-0-5" x="60.024497" y="112.65587"/>
<use xlink:href="#glyph-0-18" x="64.707575" y="112.65587"/>
<use xlink:href="#glyph-0-5" x="69.390653" y="112.65587"/>
</g>
<g fill="rgb(0%, 0%, 0%)" fill-opacity="1">
<use xlink:href="#glyph-0-5" x="82.686831" y="111.664013"/>
<use xlink:href="#glyph-0-19" x="87.369909" y="111.664013"/>
<use xlink:href="#glyph-0-20" x="92.052987" y="111.664013"/>
<use xlink:href="#glyph-0-2" x="96.736064" y="111.664013"/>
<use xlink:href="#glyph-0-9" x="101.419142" y="111.664013"/>
<use xlink:href="#glyph-0-17" x="106.10222" y="111.664013"/>
<use xlink:href="#glyph-0-5" x="110.785298" y="111.664013"/>
<use xlink:href="#glyph-0-18" x="115.468376" y="111.664013"/>
<use xlink:href="#glyph-0-5" x="120.151454" y="111.664013"/>
</g>
<g fill="rgb(0%, 0%, 0%)" fill-opacity="1">
<use xlink:href="#glyph-0-7" x="134.378804" y="111.827167"/>
<use xlink:href="#glyph-0-2" x="139.061882" y="111.827167"/>
<use xlink:href="#glyph-0-15" x="143.74496" y="111.827167"/>
<use xlink:href="#glyph-0-2" x="148.428037" y="111.827167"/>
<use xlink:href="#glyph-0-17" x="153.111115" y="111.827167"/>
<use xlink:href="#glyph-0-19" x="157.794193" y="111.827167"/>
<use xlink:href="#glyph-0-12" x="162.477271" y="111.827167"/>
<use xlink:href="#glyph-0-15" x="167.160349" y="111.827167"/>
</g>
<path fill="none" stroke-width="0.3985" stroke-linecap="butt" stroke-linejoin="miter" stroke="rgb(54.998779%, 54.998779%, 54.998779%)" stroke-opacity="1" stroke-miterlimit="10" d="M 95.254519 -2.045504 L 138.151577 -21.352125 " transform="matrix(0.994842, 0, 0, -0.994842, 65.689961, 8.621298)"/>
<path fill="none" stroke-width="0.3985" stroke-linecap="butt" stroke-linejoin="miter" stroke="rgb(54.998779%, 54.998779%, 54.998779%)" stroke-opacity="1" stroke-miterlimit="10" d="M 147.402421 -30.229951 L 147.402421 -46.144072 " transform="matrix(0.994842, 0, 0, -0.994842, 65.689961, 8.621298)"/>
<path fill="none" stroke-width="0.3985" stroke-linecap="butt" stroke-linejoin="miter" stroke="rgb(54.998779%, 54.998779%, 54.998779%)" stroke-opacity="1" stroke-miterlimit="10" d="M 43.974374 -55.905362 L 21.224208 -71.65457 " transform="matrix(0.994842, 0, 0, -0.994842, 65.689961, 8.621298)"/>
<path fill="none" stroke-width="0.3985" stroke-linecap="butt" stroke-linejoin="miter" stroke="rgb(54.998779%, 54.998779%, 54.998779%)" stroke-opacity="1" stroke-miterlimit="10" d="M 9.020633 -81.419786 L -7.776952 -97.329981 " transform="matrix(0.994842, 0, 0, -0.994842, 65.689961, 8.621298)"/>
<path fill="none" stroke-width="0.3985" stroke-linecap="butt" stroke-linejoin="miter" stroke="rgb(54.998779%, 54.998779%, 54.998779%)" stroke-opacity="1" stroke-miterlimit="10" d="M 18.781922 -81.419786 L 32.87022 -96.332649 " transform="matrix(0.994842, 0, 0, -0.994842, 65.689961, 8.621298)"/>
<path fill="none" stroke-width="1.19553" stroke-linecap="butt" stroke-linejoin="miter" stroke="rgb(39.99939%, 39.99939%, 79.998779%)" stroke-opacity="1" stroke-miterlimit="10" d="M 86.164661 -2.921114 L 61.506215 -18.772411 " transform="matrix(0.994842, 0, 0, -0.994842, 65.689961, 8.621298)"/>
<path fill-rule="nonzero" fill="rgb(39.99939%, 39.99939%, 79.998779%)" fill-opacity="1" stroke-width="0.9567" stroke-linecap="butt" stroke-linejoin="miter" stroke="rgb(39.99939%, 39.99939%, 79.998779%)" stroke-opacity="1" stroke-miterlimit="10" d="M 4.306676 -0.00193391 L 1.543226 1.051041 L 2.473495 0.000200484 L 1.545573 -1.051101 Z M 4.306676 -0.00193391 " transform="matrix(-0.836801, 0.537951, 0.537951, 0.836801, 128.749403, 26.094995)"/>
<path fill="none" stroke-width="1.19553" stroke-linecap="butt" stroke-linejoin="miter" stroke="rgb(39.99939%, 39.99939%, 79.998779%)" stroke-opacity="1" stroke-miterlimit="10" d="M 51.022449 -30.394864 L 51.022449 -42.708381 " transform="matrix(0.994842, 0, 0, -0.994842, 65.689961, 8.621298)"/>
<path fill-rule="nonzero" fill="rgb(39.99939%, 39.99939%, 79.998779%)" fill-opacity="1" stroke-width="0.9567" stroke-linecap="butt" stroke-linejoin="miter" stroke="rgb(39.99939%, 39.99939%, 79.998779%)" stroke-opacity="1" stroke-miterlimit="10" d="M 4.308595 -0.00187139 L 1.544336 1.050432 L 2.474918 -0.00187139 L 1.544336 -1.050248 Z M 4.308595 -0.00187139 " transform="matrix(0, 0.994842, 0.994842, 0, 116.45108, 48.885505)"/>
<path fill="none" stroke-width="1.19553" stroke-linecap="butt" stroke-linejoin="miter" stroke="rgb(39.99939%, 39.99939%, 79.998779%)" stroke-opacity="1" stroke-miterlimit="10" d="M 58.07445 -55.905362 L 76.564359 -68.705766 " transform="matrix(0.994842, 0, 0, -0.994842, 65.689961, 8.621298)"/>
<path fill-rule="nonzero" fill="rgb(39.99939%, 39.99939%, 79.998779%)" fill-opacity="1" stroke-width="0.9567" stroke-linecap="butt" stroke-linejoin="miter" stroke="rgb(39.99939%, 39.99939%, 79.998779%)" stroke-opacity="1" stroke-miterlimit="10" d="M 4.307003 -0.00127153 L 1.543664 1.051659 L 2.47591 0.00157267 L 1.544528 -1.053863 Z M 4.307003 -0.00127153 " transform="matrix(0.817929, 0.566184, 0.566184, -0.817929, 140.028679, 75.704934)"/>
<path fill="none" stroke-width="1.19553" stroke-linecap="butt" stroke-linejoin="miter" stroke="rgb(39.99939%, 39.99939%, 79.998779%)" stroke-opacity="1" stroke-miterlimit="10" d="M 87.876617 -82.413192 L 87.876617 -92.735971 " transform="matrix(0.994842, 0, 0, -0.994842, 65.689961, 8.621298)"/>
<path fill-rule="nonzero" fill="rgb(39.99939%, 39.99939%, 79.998779%)" fill-opacity="1" stroke-width="0.9567" stroke-linecap="butt" stroke-linejoin="miter" stroke="rgb(39.99939%, 39.99939%, 79.998779%)" stroke-opacity="1" stroke-miterlimit="10" d="M 4.308116 0.00134719 L 1.543857 1.049724 L 2.474438 0.00134719 L 1.543857 -1.050956 Z M 4.308116 0.00134719 " transform="matrix(0, 0.994842, 0.994842, 0, 153.111941, 98.655513)"/>
<path fill="none" stroke-width="0.79701" stroke-linecap="butt" stroke-linejoin="miter" stroke="rgb(79.998779%, 39.99939%, 0%)" stroke-opacity="1" stroke-dasharray="2.98883 2.98883" stroke-miterlimit="10" d="M 14.172207 -71.65457 C 16.885421 -59.886837 25.080035 -52.501083 33.592696 -51.452706 " transform="matrix(0.994842, 0, 0, -0.994842, 65.689961, 8.621298)"/>
<path fill-rule="nonzero" fill="rgb(79.998779%, 39.99939%, 0%)" fill-opacity="1" stroke-width="0.79701" stroke-linecap="butt" stroke-linejoin="miter" stroke="rgb(79.998779%, 39.99939%, 0%)" stroke-opacity="1" stroke-miterlimit="10" d="M 4.533718 0.00110449 L 1.286991 1.232034 L 2.369363 -0.00119285 L 1.287862 -1.23282 Z M 4.533718 0.00110449 " transform="matrix(0.98736, -0.121679, -0.121679, -0.98736, 96.965127, 60.07228)"/>
<g fill="rgb(79.998779%, 39.99939%, 0%)" fill-opacity="1">
<use xlink:href="#glyph-1-0" x="75.278245" y="66.340022"/>
<use xlink:href="#glyph-1-0" x="79.490916" y="66.340022"/>
</g>
<path fill="none" stroke-width="0.79701" stroke-linecap="butt" stroke-linejoin="miter" stroke="rgb(79.998779%, 39.99939%, 0%)" stroke-opacity="1" stroke-dasharray="2.98883 2.98883" stroke-miterlimit="10" d="M 64.985098 -51.024717 C 76.693933 -52.175183 84.955298 -59.262523 87.004933 -67.268665 " transform="matrix(0.994842, 0, 0, -0.994842, 65.689961, 8.621298)"/>
<path fill-rule="nonzero" fill="rgb(79.998779%, 39.99939%, 0%)" fill-opacity="1" stroke-width="0.79701" stroke-linecap="butt" stroke-linejoin="miter" stroke="rgb(79.998779%, 39.99939%, 0%)" stroke-opacity="1" stroke-miterlimit="10" d="M 4.533681 0.000655685 L 1.285805 1.230547 L 2.368923 0.000265236 L 1.287282 -1.230407 Z M 4.533681 0.000655685 " transform="matrix(0.247039, 0.963633, 0.963633, -0.247039, 151.711403, 73.451667)"/>
<g fill="rgb(79.998779%, 39.99939%, 0%)" fill-opacity="1">
<use xlink:href="#glyph-1-1" x="146.389527" y="62.176609"/>
<use xlink:href="#glyph-1-2" x="150.602198" y="62.176609"/>
<use xlink:href="#glyph-1-3" x="154.814869" y="62.176609"/>
<use xlink:href="#glyph-1-4" x="159.027541" y="62.176609"/>
<use xlink:href="#glyph-1-5" x="163.240212" y="62.176609"/>
<use xlink:href="#glyph-1-6" x="167.452883" y="62.176609"/>
</g>
<g clip-path="url(#clip-0)">
<path fill="none" stroke-width="0.79701" stroke-linecap="butt" stroke-linejoin="miter" stroke="rgb(79.998779%, 39.99939%, 0%)" stroke-opacity="1" stroke-dasharray="2.98883 2.98883" stroke-miterlimit="10" d="M 104.187316 -76.535215 C 113.014097 -81.541508 115.35822 -94.224117 111.125449 -99.352131 " transform="matrix(0.994842, 0, 0, -0.994842, 65.689961, 8.621298)"/>
</g>
<path fill-rule="nonzero" fill="rgb(79.998779%, 39.99939%, 0%)" fill-opacity="1" d="M 174.742188 109.273438 L 177.746094 107.5625 L 176.113281 107.613281 L 175.855469 106.003906 Z M 174.742188 109.273438 "/>
<g clip-path="url(#clip-1)">
<path fill="none" stroke-width="0.79701" stroke-linecap="butt" stroke-linejoin="miter" stroke="rgb(79.998779%, 39.99939%, 0%)" stroke-opacity="1" stroke-miterlimit="10" d="M 4.535736 -0.00090423 L 1.286853 1.232525 L 2.371289 -0.000662483 L 1.288779 -1.23058 Z M 4.535736 -0.00090423 " transform="matrix(-0.633376, 0.767083, 0.767083, 0.633376, 177.615707, 105.794726)"/>
</g>
<g fill="rgb(0%, 0%, 0%)" fill-opacity="1">
<use xlink:href="#glyph-2-0" x="7.046034" y="87.492345"/>
<use xlink:href="#glyph-2-1" x="10.960576" y="87.492345"/>
<use xlink:href="#glyph-2-2" x="15.310418" y="87.492345"/>
<use xlink:href="#glyph-2-3" x="19.877515" y="87.492345"/>
</g>
<g fill="rgb(0%, 0%, 0%)" fill-opacity="1">
<use xlink:href="#glyph-2-4" x="26.402279" y="87.492345"/>
<use xlink:href="#glyph-2-5" x="30.31682" y="87.492345"/>
<use xlink:href="#glyph-2-6" x="33.144297" y="87.492345"/>
<use xlink:href="#glyph-2-3" x="37.058838" y="87.492345"/>
</g>
<g fill="rgb(0%, 0%, 0%)" fill-opacity="1">
<use xlink:href="#glyph-2-7" x="43.583602" y="87.492345"/>
<use xlink:href="#glyph-2-8" x="46.193825" y="87.492345"/>
<use xlink:href="#glyph-2-7" x="50.108366" y="87.492345"/>
</g>
</svg>
